<svg xmlns="http://www.w3.org/2000/svg" viewBox="0 0 512 512"><g stroke-width="2" fill="none"><path stroke="#eca8a8" vector-effect="non-scaling-stroke" d="M259 0q15 29 26.3 59.5"/><path stroke="#eb9f9f" vector-effect="non-scaling-stroke" d="M285.3 59.5q16 46.8 23 95.7"/><path stroke="#f9f9f9" vector-effect="non-scaling-stroke" d="M308.3 155.2q-21.7 2.8-32.8 21.3"/><path stroke="#b7d5eb" vector-effect="non-scaling-stroke" d="M254.8 168.5q-32.6-12-66.8-17.7"/><path stroke="#c4dcee" vector-effect="non-scaling-stroke" d="M188 150.8q-60.9-10.5-122.3-3.3"/><path stroke="#b7d5eb" vector-effect="non-scaling-stroke" d="M65.8 147.5q-22.6 2.3-44.8 7"/><path stroke="#e45454" vector-effect="non-scaling-stroke" d="m287.3 1.8-.7 1.3a1.3.3-59.7 0 0-.3.9q2 24.6-.6 53-.1 2-.4 2.5"/><path stroke="#ea9f9f" vector-effect="non-scaling-stroke" d="M438.5 80.7q-26.3 26.2-53 48.2-20.7 17-46.8 36.8"/><path stroke="#f1a5a5" vector-effect="non-scaling-stroke" d="M338.8 165.7q-13.2-11-30.6-10.5"/><path stroke="#f0de93" vector-effect="non-scaling-stroke" d="M511.7 270h-.3a.9.8 66.1 0 1-.7-.3q-27.4-27.5-61.4-46.4"/><path stroke="#eee" vector-effect="non-scaling-stroke" d="M447.8 222.3q1.4-1.8 2-5.3 8.6-55.1-3.2-107.8-2.8-12.3-6.3-24.5-.7-2.2-1.8-4"/><path stroke="#f9e597" vector-effect="non-scaling-stroke" d="M447.8 222.3q-45-24.5-96-28.6"/><path stroke="#f9f9f9" vector-effect="non-scaling-stroke" d="M351.8 193.8q-1.7-16.4-13-28"/><path stroke="#88bee5" vector-effect="non-scaling-stroke" d="M188 150.8q-14.9 37-46.5 61.4-9.3 7.2-20 11.7-10.3 4.4-19.8 4.8-19.3 1-30.2-12.5-5.3-6.6-8-16.4-2.7-9-2.5-18.3.3-16.3 5.5-32.8.3-.9-.8-1.2"/><path stroke="#74b3e1" vector-effect="non-scaling-stroke" d="M254.8 168.5q-15.3 34.2-37 64.8-.4.4-.9 1.6-.3.8-1 1.5l-1.6 1.9q-12 16.5-26.6 33l-1 1q-7.5 8-14.8 15.4-6.3 6.5-13.3 12.4l-3.7 3.3q-1.8 1.7-3.8 3.1l-2.5 2.2q-1.3 1.2-2.7 2.1l-3.6 2.6q-20.4 16-43.3 28.3l-4.1 2-4.2 2q-3.6 2-6.2 3.1l-9.3 3.8q-5.5 2.3-9.4 3.6-17.4 6-31.3 8.3-6.4 1-9.3 2.5"/><path stroke="#ffec9d" vector-effect="non-scaling-stroke" d="M351.8 193.8q-.8 28.1-26 39.3l-.7.2q-.7.2-.9 1"/><path stroke="#f9f9f9" vector-effect="non-scaling-stroke" d="m324.2 234.3-.2-.1a.2.1 59.5 0 0-.1-.2q-17.1 4.5-32.9-3.3"/><path stroke="#b6d7ef" vector-effect="non-scaling-stroke" d="M291 230.7q0-.5-1-1-12.5-8-17-21.6-2.4-7.7-1.7-15.9.7-8.1 4.2-15.7"/><path stroke="#e5ebf0" vector-effect="non-scaling-stroke" d="M337.4 195.5a26.1 26.1 0 0 0-26-26.1 26.1 26.1 0 0 0-26.2 26.1 26.1 26.1 0 0 0 26.1 26.2 26.1 26.1 0 0 0 26.1-26.2"/><path stroke="#b0d1e9" vector-effect="non-scaling-stroke" d="M291 230.7q-.7.7-1.8 2.5-18.6 30.4-41.4 62.1-37.8 52.5-83.7 98-27 26.6-60.4 51.7"/><path stroke="#fbd53b" vector-effect="non-scaling-stroke" d="M449.3 223.3q-1 1.4-1 2-6.7 34.3-22.6 67.1-6.6 13.7-13.4 24.8l-5.1 9q-3 5.1-6.7 9.3-2.6 3-4 5.8a1.9 1.3-10.5 0 1-.7.7q-.9.5-1.6 1.5-3.3 4.7-7.6 9.7l-8.1 9.2q-7.5 8.5-16.1 15.9-.2 0-2.5 2.7-1.3 1.6-3.6 2"/><path stroke="#f9e597" vector-effect="non-scaling-stroke" d="M356.3 383q-10-75.7-32-148.8"/><path stroke="#f0de93" vector-effect="non-scaling-stroke" d="M361.3 489.5q1.5-52.5-5-104.5"/><path stroke="#f4e297" vector-effect="non-scaling-stroke" d="M356.3 385v-2"/><path stroke="#eee" vector-effect="non-scaling-stroke" d="M356.3 385q0 .4-1.2.6a1.9 1.8 19.9 0 0-1 .5q-38.8 32.9-85.9 50.2-49.4 18.1-101.8 17.1-10.5-.2-20-1-19.6-1.4-39.7-6.2l-1.8-.2q-1 0-1.2-1"/></g><path fill="#f3f3f3" d="M249.6 0h9.5q15 29 26.1 59.5 16 46.8 23 95.7-21.6 2.8-32.7 21.3l-20.8-8q-32.5-12-66.7-17.7-60.9-10.5-122.3-3.3-22.5 2.3-44.7 7 29.2-66.6 87.7-107.8Q171.4 2.5 249.6 0Z"/><path fill="#e55d5d" d="M259 0h8.8l19.4 1.8-.6 1.3a1.3.3-59.7 0 0-.3.9q2 24.6-.6 53-.1 2-.4 2.5Q274 29 259 0Z"/><path fill="#e24b4b" d="M287.3 1.8q88.2 11.5 151.1 74.5 1.6 1.6 2.1 2.4l-2 2q-26.3 26.2-53 48.2-20.7 17-46.8 36.8-13.1-11-30.4-10.5-7-49-23-95.7.3-.5.4-2.5 2.7-28.4.6-53a1.3.3-59.7 0 1 .3-.9l.6-1.3Z"/><path fill="#eaeaea" d="M440.5 78.7q68.1 72 71.5 171.9v11l-.3 8.4h-.3a.9.8 66.1 0 1-.7-.3q-27.4-27.5-61.4-46.4l-1.6-1q1.5-1.8 2-5.3 8.8-55.1-3.1-107.8-2.8-12.3-6.3-24.5-.7-2.2-1.8-4l2-2Z"/><path fill="#f2f2f2" d="M438.5 80.7q1.1 1.8 1.8 4 3.5 12.2 6.3 24.5 11.8 52.7 3.1 107.8-.5 3.5-2 5.3-44.8-24.5-96-28.6-1.6-16.3-13-28 26-19.7 46.7-36.8 26.8-22 53.1-48.2Z"/><path fill="#95c5e8" d="M188 150.8q-14.9 37-46.5 61.4-9.3 7.2-20 11.7-10.3 4.4-19.8 4.8-19.3 1-30.2-12.5-5.3-6.6-8-16.4-2.7-9-2.5-18.3.3-16.3 5.5-32.8.3-.9-.8-1.2 61.4-7.2 122.3 3.3Z"/><path fill="#7bb7e2" d="M65.8 147.5q1 .3.7 1.3-5.2 16.4-5.5 32.7-.2 9.3 2.4 18.3 2.8 9.8 8.1 16.3 10.9 13.6 30.3 12.7 9.4-.5 19.7-4.9 10.7-4.5 20-11.7 31.6-24.3 46.5-61.4 34.2 5.7 66.8 17.7-15.3 34.2-37 64.8-.4.4-.9 1.6-.3.8-1 1.5l-1.6 1.9q-12 16.5-26.6 33l-1 1q-7.5 8-14.8 15.4-6.3 6.5-13.3 12.4l-3.7 3.3q-1.8 1.7-3.8 3.1l-2.5 2.2q-1.3 1.2-2.7 2.1l-3.6 2.6q-20.4 16-43.3 28.3l-4.1 2-4.2 2q-3.6 2-6.2 3.1l-9.3 3.8q-5.5 2.3-9.4 3.6-17.4 6-31.3 8.3-6.4 1-9.3 2.5Q2.4 319.5 0 266.7v-22.5q2.3-46.8 21-89.7 22.2-4.7 44.8-7Z"/><path fill="#fff" d="M308.3 155.2q17.3-.5 30.4 10.5 11.4 11.7 13 28-.6 28.2-25.8 39.4l-.8.2q-.7.2-.9 1l-.2-.1a.2.1 59.5 0 0-.1-.2q-17.1 4.5-32.9-3.3 0-.5-1-1-12.5-8-17-21.6-2.4-7.7-1.7-15.9.7-8.1 4.2-15.7 11.1-18.5 32.8-21.3Zm29.1 40.3a26.1 26.1 0 0 0-26-26.1 26.1 26.1 0 0 0-26.2 26.1 26.1 26.1 0 0 0 26.1 26.2 26.1 26.1 0 0 0 26.1-26.2Z"/><path fill="#6dafdf" d="m254.8 168.5 20.7 8q-3.5 7.6-4.2 15.7-.7 8.2 1.8 15.9 4.4 13.7 17 21.6.8.5.9 1-.7.7-1.8 2.5-18.6 30.4-41.4 62.1-37.8 52.5-83.7 98-27 26.6-60.4 51.7l-11.2 8q-43-35.6-67.3-86 3-1.5 9.3-2.5 14-2.3 31.3-8.3 4-1.3 9.4-3.6l9.3-3.8q2.6-1 6.3-3l4-2.1 4.2-2q22.9-12.3 43.3-28.3l3.6-2.6 2.7-2.1q1.3-1.3 2.5-2.2 2-1.4 3.8-3.1l3.7-3.3q7-5.9 13.3-12.4 7.3-7.4 14.8-15.4l1-1q14.6-16.5 26.6-33l1.6-1.9q.7-.7 1-1.5.5-1.2.9-1.6 21.7-30.6 37-64.8Z"/><circle fill="#cbd6e0" cx="311.3" cy="195.5" r="26.1"/><path fill="#ffd83b" d="M351.8 193.8q51 4 96 28.5l1.5 1q-1 1.4-1 2-6.7 34.3-22.6 67.1-6.6 13.7-13.4 24.8l-5.1 9q-3 5.1-6.7 9.3-2.6 3-4 5.8a1.9 1.3-10.5 0 1-.7.7q-.9.5-1.6 1.5-3.3 4.7-7.6 9.7l-8.1 9.2q-7.5 8.5-16.1 15.9-.2 0-2.5 2.7-1.3 1.6-3.6 2-10-75.7-32-148.8 0-.7.8-.9l.8-.2q25.2-11.2 25.9-39.3Z"/><path fill="#f6d13b" d="M449.3 223.3q34 18.8 61.4 46.4a.9.8 66.1 0 0 .7.3h.3q-2.8 53-26.1 99.6-41 81.5-124.4 119.9 1.6-52.5-5-104.5v-2q2.4-.4 3.7-2l2.5-2.8q8.6-7.3 16.1-15.8l8.1-9.2q4.3-5 7.6-9.7.8-1 1.6-1.5a1.9 1.3-10.5 0 0 .7-.7q1.4-2.9 4-5.8 3.7-4.2 6.7-9.4l5-8.9q6.9-11 13.5-24.8 15.9-32.8 22.6-67.1 0-.6 1-2Z"/><path fill="#f2f2f2" d="M291 230.7q15.8 7.8 32.9 3.3a.2.1 59.5 0 1 .1.2h.2q22.1 73.1 32 148.8v2q.1.4-1.1.6a1.9 1.8 19.9 0 0-1 .5q-38.8 32.9-85.9 50.2-49.4 18.1-101.8 17.1-10.5-.2-20-1-19.6-1.4-39.7-6.2l-1.8-.2q-1 0-1.2-1 33.5-25 60.4-51.7 46-45.5 83.7-98 22.8-31.7 41.4-62.1 1-1.8 1.8-2.5Z"/><path fill="#eaeaea" d="M356.3 385q6.5 52 5 104.5-47.7 21.1-99.9 22.5h-11.2q-89.2-3-157.7-59l11.2-8q.1 1 1.2 1 1 0 1.8.2 20 4.8 39.8 6.3 9.4.7 20 1 52.3 1 101.8-17.2 47-17.3 85.9-50.2a1.9 1.8 19.9 0 1 .9-.5q1.2-.2 1.2-.6Z"/></svg>