<svg version="1.1" xmlns="http://www.w3.org/2000/svg" viewBox="0 0 810.7 1449.8"><text xml:space="preserve" style="-inkscape-font-specification:&quot;Nickname DEMO&quot;" x="201.6" y="904.5" font-size="240" font-family="Nickname DEMO" fill="none" fill-rule="evenodd" stroke-width="0" stroke-linecap="round" paint-order="stroke fill markers"/><g aria-label="beachy" style="-inkscape-font-specification:&quot;Nickname DEMO&quot;" font-size="240" font-family="Nickname DEMO" fill="#fff" fill-rule="nonzero" stroke="none" stroke-width="40" stroke-linecap="butt" paint-order="stroke fill markers" color="#000"><path style="-inkscape-font-specification:&quot;Nickname DEMO&quot;;-inkscape-stroke:none" d="M-13.9 735.7v-1.1c-1 13.6-.6 27.8-1 39.1v.6c0 2.7-.1 5.2-.4 8.3v.3l-.7 16.2c-.3 5.3-.2 8.1-.5 10.2l-.1.7-.1.8c-.7 8.2-1.5 16.5-1.3 26.3 0 4.2.3 6.8.3 9.4v13.2l1 15.3c.2 3.5 0 5.2.1 4.5l-.4 1.5-.1 1.5c-.4 3.6-.4 6.5-.4 8.4 0 12.6 10 23.9 23.6 23.9 1.4 0 4.2.3 8.8 0 5.3-.4 9.6-1.1 12-1.3H28c5-.6 11-.6 18-.9h1l1-.2c-.1 0 3 0 7.6-1.5l12.7-3 .5-.2c3.8-1.2 12.7-2.2 22.3-9.4l.6-.5.5-.4c-2.8 2.5-2.6 2.2 3-1l1.2-.6 1.1-.9c-2 1.6-.4 1.7 5-3.7l8.7-8.7c4-4 5-6.4 5.5-7l.5-.7.4-.7c5-8.2 7.8-17.3 9.1-26.4a42.6 42.6 0 0 0-2-24.4l.2.7-1.6-4.5.1.4c-1.7-5-4.5-10.4-8.1-15.4a56.9 56.9 0 0 0 11.4-27.4c1-7.2.7-16-2.8-24.2l-.3-.6-6.2-12.5-4.6-6.7-2.4-1.9c-3.1-2.4-7-6.7-13.8-11.3l-.2-.1-.1-.1c-32.1-19-107.7-25.7-110.2 16Zm76.5 28 .5 2.4.2 1.2c-.2-1.2-.3-2.2-.7-3.5zm-37.8 17.9c.5 3.8 1 8.1 2 13.5l-.3-2c.4 4.7 2.8 12.5 9.6 17.3-2 1.4-3.8 3-5.3 5-4 5.5-4.3 10.6-4.4 13.9-.2 3.4-.2 6.6-.2 9.8v3.3l.5 11.5v-.9c0 3.6.2 11.7 7.8 18.3.8.7 1.6 1 2.4 1.6-4 0-8.2.3-12.9.8h-.8v-1.3l-1-14v-11.9l-.2-9.8v-.6c-.2-6.9.4-13.4 1.1-22l-.1 1.5c1-7 .8-11.9.9-14.4v-.2l.7-16v.7l.2-4.1zm72.4 7.6 1.1.6.2.1-1.3-.7zM46 806.3l-.9.2zm19.6 4.6-.3.1h.1l.2-.1zm6.6 59.5-1.1.5.4-.2.7-.3z" fill="#171717" transform="rotate(-.8 1342.7 -1150.2)"/><path style="-inkscape-font-specification:&quot;Nickname DEMO&quot;;-inkscape-stroke:none" d="M5.6 748.9c0 8.4-.2 17-.5 25.4 0 3.6-.2 6.7-.4 9.8L3.9 800c-.2 4 0 7.9-.7 12.5-.7 8.4-1.4 15.8-1.2 24.2 0 3.6.3 6.2.3 9.8V859l1 14.7c.2 3.6.4 7.4-.6 11-.2 2.2-.2 4.3-.2 6.2 0 2.2 1.7 3.9 3.6 3.9 2.6 0 4.6.2 7.2 0 4-.3 8.4-1 12.5-1.2 6.5-.7 13-.7 19.4-1 1.7-.2 3.4-.2 5-1l12.8-3c5.5-1.7 11.3-2.7 16-6.3 2-1.7 4.4-2.2 6.5-3.4 1-.7 2.2-1.2 3-1.9l8.6-8.6c1.2-1.2 2.1-2.9 3.3-4.6 3.6-6 5.8-12.7 6.7-19.9 1-4.6.8-8.9-1-13l-1.6-4.5c-2.9-8.4-7.2-15.1-15.6-19-3.6-1.9-3.8-2.4-.2-5 2.6-2.2 5.2-3.9 7.9-6.5 5.5-6 9.3-13 10.3-21.4.7-4.8.5-9.3-1.4-13.9l-5.3-10.5-2.2-3.2c-4.5-3.6-8.1-7.4-12.7-10.5-26-14.6-49-13.8-73.4-8.7-3.2.8-4.8 2.7-5.3 5.8-.3 1-.5 1.7-.5 2.2l-.7 13.2zM46.2 839c0-3.6 0-6.5.2-9.6 0-2.2.7-3.1 2.4-3.4 3.9-.7 7.5-1.4 11.3-.7 5.5 1.2 8.6 4.6 10.8 9.4 2.9 6.5 0 11.3-3.6 14.9a12.5 12.5 0 0 1-4 2.8 44.6 44.6 0 0 1-12.6 4.1c-3 .3-4-.5-4-3.6l-.5-11zm23.3-62.4c-.3 8.4-4.4 13-11.3 15.6a38 38 0 0 1-7.5 2.2c-2.6.4-4-.5-4.3-3.2-1-5-1.4-10-2.1-14.8-.3-2.7-.3-4.8-1-7.5-.7-4.8.5-6.2 5.3-5.5 5.5.7 10 2 14.9 3.8 4 1.5 6 4.6 6 9.4z" transform="rotate(-.8 1342.7 -1150.2)"/><path style="-inkscape-font-specification:&quot;Nickname DEMO&quot;;-inkscape-stroke:none" d="m178.5 710.8-6.9.1c-5.6 0-10.3.5-14.1.7-1.5 0-4.2-.3-7.9-.3-2.6 0-6 0-9.8.3h1.7H136.6c-5.9.4-13 3.2-17.8 8.3a26.5 26.5 0 0 0-6.6 15.9v-.7l-.7 6.5c-.7 5.9-1.5 12.3-1.8 19.7v.8c0 7.4-.9 15.7-1.6 25l-2.2 28.4v-.5c-.7 7.2 10.2 14.8 10 22-.8 9-12.4 16.5-12.7 24.3v19.5c-.6 3.4-1 6.5-1.1 9a25.2 25.2 0 0 0 7.4 19.6c5.7 5.3 13 6.7 18.7 6.3h.6c2-.3 3.2-.2 2.3-.3l-1-.1c8.5 1.3 15.6-.1 20.5-1.2h.2a77 77 0 0 1 23-1.5h1.5c5.5 0 11.8 0 18.9-.9l-.8.1 7.8-.7c.6 0 3.7.2 8.9-.2 3.8-.3 8-.5 13-1.4 10.6-1.4 19.6-13 20.6-21.4v-4.4c.3-2.6.6-6 .3-10.3-.1-5.1-.5-9.5-.7-13.2v-3.9l-.2-1.2c-.4-3.7-2-8.6-5.5-12.8l-1.2-1.2.8-.9c3.7-5 4.7-10.5 4.7-14.5 0-3.6-.4-6.2-.7-8.1l.1 1.2-1.4-18.7a26.2 26.2 0 0 0-7-16 24 24 0 0 0-7-4.9l1.2-1.2c4.2-5.3 4.8-10.6 5-12.8l.2-1V761l-.8-12.8.3-4.9c0-1.3.4-6-1-11.6-1-4.3-3.6-10-8.5-13.9-5.1-4-11.2-5.3-15.6-5.3l1.8.1c-2.3-.2-6-.6-10.8-.2h1c-3.3 0-7.3-.4-12.9-1.1l-.6-.1h-.7l-6-.4zm-27.7 40.6 7 .2h1l2.6-.2c-3.2 1.2-7 3.4-10.3 8l-1.3 2.4c.1-3.4.6-7 1-10.4zm-3.2 43.4.4 2c.9 3.5 2.6 7.8 6.2 11.4 3.8 3.8 8.5 5.6 12.2 6.3l-1.7.2-2 .6c-1 .4-4 .3-9.5 5.4-5.5 5-7 13.4-7 16.7v-1.6c-.2 2.8-.5 6.2-.5 10l.2-2.5c-.5 3.4-.4 6.1-.4 8a26 26 0 0 0 8.7 18.5 25 25 0 0 0 4.5 2.8c-5.1.4-10.3 1.1-15.5 2.2v-12.5c.3-7.8.5-15.3 1.1-23v-.4l.1-.6c.2-6.4.7-12.7 1.4-19.2v-.3zm20 20h.4zm49.4 59h.3-.3z" fill="#171717" transform="rotate(-.8 1342.7 -1150.2)"/><path style="-inkscape-font-specification:&quot;Nickname DEMO&quot;;-inkscape-stroke:none" d="M211.5 748.9c.3-2 .3-3.9.3-5.6 0-2.6.2-4.5-.5-7.2-.5-2.4-2-3.6-4.6-3.6-2.6-.2-4.5-.4-7.2-.2-5.5.2-10.8-.5-16.3-1.2-3.6-.2-7.2-.5-10.8-.2-5 0-9.8.4-14.6.7l-8.2-.3c-2.6 0-5.3 0-8.1.3h-3.6c-3.9.2-5.6 2.6-5.8 5.7l-.7 6.5c-.7 6-1.5 11.8-1.7 18.3 0 8.8-1 17.7-1.7 26.6L126 817a298 298 0 0 0-1.5 20.7c-.7 8.4-1 16.3-1.2 24.2v20.4c-.7 3.1-1 6-1.2 9.1-.2 2.9 1.7 4.6 4.6 4.3 2.1-.2 4.5-.4 6.7-.2 4.6.7 8.6 0 13.2-1a97.2 97.2 0 0 1 28.8-1.9c5.5 0 10.8 0 16.3-.7l8-.7c2.8-.3 6 0 8.8-.3 4.1-.2 8-.4 12-1.2 2-.2 3.1-1.6 3.4-3.8V883c.2-2.9.5-5.5.2-8.4 0-4.5-.5-9.1-.7-13.9v-3.1c-.2-2-1.2-3.1-3.1-3.6-.7-.3-1.7-.3-2.9-.3-7.4-.2-14.4 0-21.8-.2-5.6 0-10.4 0-15.4 1-3.6.7-7 .7-10.6.4-2.6-.2-4-1-4-3.6 0-1.9 0-3.6.2-5.5 0-2.6.2-5.5.5-8.4 0-2.1.7-2.4 2.9-3.1l6-.7c8.6-1.2 17.5-2.7 26.4-2.4l4.3.2c4.5.3 8.4-1 13-1.7 2.1-.4 3-1.9 3-4 0-1.7-.2-3.6-.4-5.3l-1.5-18.7c-.2-3.2-1.9-4.8-4.8-5-6-.8-12-1.3-18.4-1.5-3.6-.3-7-.3-10.6-.3h-11.3c-1.7 0-2.6.3-4.3 0-2-.2-2.9-1.2-3.1-3-.7-2.7-.5-5.4-.5-8a61 61 0 0 1 0-9.4c0-3.6.2-4.3 3.8-5 4.1-.7 8.2-1 12.3-1.2 7.4-.2 14.6-.2 22-1.2 1.3 0 2.2 0 3.9-.2 2.6-.8 3.1-1.7 3.4-3.9v-1.4z" transform="rotate(-.8 1342.7 -1150.2)"/><path style="-inkscape-font-specification:&quot;Nickname DEMO&quot;;-inkscape-stroke:none" d="M293.4 713.2c-7.6 0-14.3 1-20.5 1.6h1c-5 .2-11 2-16 5.9-4.9 4-8 9.7-9.3 14.6l1-2.7c-1 2-2.3 6.4-2.7 9.1l.4-1.8-5.5 23v-.3c-3 12-5.3 24-7.3 35.8l-.1.8v.8l-.7 5.7-.1.4-5.2 24.4v.1c-1 5.5-2.6 11.7-3.9 18.8v-.3l6.8 26.8.1-.6c-1.1 5-1.4 8.2-1.6 8.8l-.1.4-.1.5c-.9 4.5-13 11.5-8.4 18 3.4 5 8.5 7.7 13 9 5.1 2 7.2 1.1 7.8 1.1h1.3l1.3-.2c3.4-.4 8.3-.1 15.8-1.2l-.9.1 20-1.9c3.3-.3 8.3-1 13.5-4.8 4.9-3.5 8-9.3 9.2-13.7 1.2-3.8 1.6-7 1.8-9 .8-4.9 1.6-10.3 2-16.4v-.2l.1-2.1h.1l1 6.9 3.2 18-.1-.8c.7 5.3 3.4 12.4 9.5 17.1a26.3 26.3 0 0 0 19.2 4.9l-.9.1 6-.2c1.3 0 4 .3 8 .3s6.8-.4 9-.6h.5c-.7 0 3.2.7 10.2-1.5 2.3-.6 7-1.5 12-7.5 5.4-6.5 5.2-13 5.2-15.5v-1l-1.1-10.4v-.2l-.1-3.5v-1.2l-.2-1.3c-.6-4.7-.8-10.2-1.7-17v-.5c-.5-2.9-.5-7.7-1.5-14.4l.2 1.7A117 117 0 0 0 383 823v.6l-1.8-12.2v.1c-1.1-7.5-2.6-13.7-3.4-19.2v-.2c-1-6.1-1.5-13.4-2.2-21.5l-.1-.9-.2-1a89 89 0 0 1-.9-9.2v-.6l-2-16.8-.1-.3c-.3-1.7.8-6.1-5.3-14-6-7.7-14-8.7-18.2-9.2h-.1l-16.8-2-14-1.8c-8.2-1.2-13.5-.7-15.4-1h-.5l-.6-.1c-2.7-.3-5.3-.4-7.9-.4zm38.9 33.4.3 1.2v.3c-.4-1.2-.5-1.8-.3-1.5zm-35.5 6.7c2.5.4 4.2.4 6.1.5-3.8.5-8.2 1.9-11.8 4.6a24.8 24.8 0 0 0-8 11c-2.5 6.6-2.3 8.6-1.7 7l-.3.7-.2.7c-1.9 7.6-2.8 14.5-3.9 20.7-.7 2.2-1.3 4.3-1.6 6.6-.9 4.8-.7 13.3 5.7 20l.2.1c-1.3.7-2.5 1.2-3.9 2.2-8 5.8-9 14-9.2 17.6v-.7c-.6 5.3-2 11.5-2.2 20v-.3c-.1 2-.6 4.7-.9 7l-4.2.5 3-14.7v-.1c1-5.8 2.4-11.6 3.7-18v-.2l5-23.8-.1.7c1.1-4.7 1.4-8.3 1.6-11a386 386 0 0 1 6.5-31.9v-.1l4.5-18.6c4.7-.4 9-.7 12.8-.4zm20.6 1.7 9.5 1.2 6.9.8.6 5.5c.2 3.7.5 8.3 1.5 13.6l-.3-1.9.1 1.3-.6-2.7a25 25 0 0 0-7.3-12.6c-3.3-3-7-4.4-10.4-5.2zm20.8 43.1v.2zm2 12 1.3 7.2 2 12.7v.3c.6 3 1 6.3 1.2 9.3v.9l.2.8c.4 3 .4 7.7 1.4 14.4v-.4c.5 4 .8 9 1.4 14.3l-1-5.3-2.1-15.3-.1-.4c-.6-3.1-1.3-9-7-15a21.7 21.7 0 0 0-9.2-6 22.5 22.5 0 0 0 12-17.5zm-40 21.8h-1.8H300.2zm-9 31.2h2.3c-1.6.3-2.2.1-2.3 0zm68.4 6.7zm-116.8 3 .6.1-.9.1h-.4.3-.4c-.2 0-.1-.3.8-.2zm14 19.4v.5l-.2 1 .3-1.5z" fill="#171717" transform="rotate(-.8 1342.7 -1150.2)"/><path style="-inkscape-font-specification:&quot;Nickname DEMO&quot;;-inkscape-stroke:none" d="M368 875.8c-.2-1.9-.2-3.8-.2-6-.7-5.7-1-11.3-1.7-17-.7-4.8-.7-9.6-1.4-14.4-.3-3.9-.8-8-1.5-11.8l-1.9-12.2c-1-6.5-2.4-12.7-3.4-19.2-1.2-7.5-1.6-15.1-2.4-22.8-.7-3.9-1-8-1.2-11.8l-1.9-15.8c-.7-4.6-.5-5.8-6.2-6.5l-16.8-2-14.4-1.8c-5-.8-10.3-.3-15.4-1-8.4-.7-16 .2-24.5 1.2-3.8.2-6.2 2.2-7.2 5.8-.7 1.6-1 2.4-1.2 4l-5.5 23c-2.9 11.4-5 22.6-7 34.2-.2 2.8-.4 6-1.1 8.8l-5 24c-1.3 6-2.7 12-4 18.5l-5.2 26.7c-.7 3-1 6.2-1.7 9-.5 2.5.5 4 2.9 4.2.5.2 1.2.2 2 .2 5.4-.7 10.5-.5 15.5-1.2l20.2-2c2.9-.2 4.5-1.1 5.3-4 .7-2.2 1-4.3 1.2-6.5.7-4.8 1.4-9.6 1.6-14.4.3-6.5 1.5-12 2.2-18.5.2-3 1.2-3.6 4.3-3.3 3.6.2 6.5.2 10.1.2 5 0 10.3.7 15.8 2 5 1.6 5.6 1.9 6.5 6.9l2.2 15.1 3.1 17.8c.5 3.6 2.6 5.3 6.2 4.8 2.7-.3 5-.3 7.7-.3s5.3.3 8.2.3c2.6 0 4.5-.3 7.2-.5 2.1-.2 4.3 0 6.5-.7 2.6-.7 3-1.2 3-3.9zm-47.5-69.3c0 2.6-1.2 4-3.6 4.3l-17 1c-.3.2-.8.2-1.5.2-2.6.2-3.8-1-3.3-3.6a20 20 0 0 1 1.4-5c1.2-7 2.2-14 3.8-20.7.8-2.2.8-4.3 1.5-6.2.7-2 1.9-3 3.8-3 2.2 0 4.3.3 6.5.6 2 .2 3.1 1.2 3.6 3.3 1 3.6 1.7 7.5 2.4 11 1 5.8 1.4 11.6 2.2 17.3 0 .3.2.3.2.5z" transform="rotate(-.8 1342.7 -1150.2)"/><path style="-inkscape-font-specification:&quot;Nickname DEMO&quot;;-inkscape-stroke:none" d="M451.2 707c-1.8 0-3.7.2-5.5.4h-.6l-.6.2c-5 .8-12.8 1.8-21.5 6-5.7 2.5-12.3 5.5-19.3 10a63.6 63.6 0 0 0-21.7 21v.2l-9.2 16-.4.9c-1 2.2-2.8 5.6-4.2 10.6a177.7 177.7 0 0 0-6.5 48.3v1c.2 3.5-.2 9.2 1 16.6v.6l2.3 10.7-.1-.8c1.6 9.2 4.8 18 9.4 26a73.6 73.6 0 0 0 28.6 28.5 89 89 0 0 0 27.3 10.4c5 1 12 2.5 20.4 1.2h-.3c3.7-.5 9-.8 15.3-1.7h.6l.5-.1c2-.4 5.4-.8 10.1-2 4.7-1 10.3-3.6 14.3-8.5 4.2-5 5.6-11.3 5.6-16.1v-.9c-.2-4.4.2-10.5-.9-18.3l.2 1.6c-.3-4.6-.5-9.7-1.4-15.5l.2 1.7a24.9 24.9 0 0 0-9-18c-7.1-5.5-13.9-5.1-17.6-4.9-2.8.2-3.6.2-5-.1-6.5-1.3-10.5-1.3-11.8-1.5l-1-.2-1.2-.1a5 5 0 0 1-1.8-.4l-.8-1.4L442 818a48 48 0 0 1-3.3-17.9c.2-3 .6-4.7 1.6-6.5l.2-.2v-.2c2.4-4.4 3.1-4.8 7-5.3l5.8-.7 17.9-2.8h.2c8.3-1.5 18.2-11 20.4-18.3l1.3-4.3.2-2c.7-7.4 1.8-16 1.5-26 0-4.4-1.3-10-4.7-14.7a25.4 25.4 0 0 0-11.9-8.7c-5.3-2-9.3-2-9.8-2l1.2.2c-6.2-1.2-11-1.1-14-1.3h1l-5.4-.2zm-45.6 66.7v.2l-.2.2zm-3.8 49.7c.9 3.2 1.9 6.3 3 9.3l.2.4 5.9 13.4.5 1a41.6 41.6 0 0 0 34.8 22.6l-2.2-.3c6.4 1.2 10.5 1.2 11.3 1.4h.8V872.5l.1 1.6c-3.3.3-6.8.5-11.6 1.2H444.3c-.7.2-1.7.2-6-.7h-.1c-5.1-1-10.2-3-15.2-5.9h-.2a30.7 30.7 0 0 1-13.4-13l-.2-.3-.1-.3c-2.5-4.4-4-8.5-4.8-13v-.5l-2.1-9.4c-.2-1.5-.3-5.2-.4-8.7z" fill="#171717" transform="rotate(-.8 1342.7 -1150.2)"/><path style="-inkscape-font-specification:&quot;Nickname DEMO&quot;;-inkscape-stroke:none" d="M381.7 820.6c.2 4.8 0 9.9.7 14.7l2.2 10a59 59 0 0 0 28.3 40.6c7 4 14.2 6.7 21.4 8.2 4.5 1 8.6 1.6 13.2 1 5-.8 10.3-1 15.3-1.8 3.6-.7 6.7-1 9.9-1.9 2.6-.5 4-2.1 4-5-.2-5.5 0-11-.7-16.6a127 127 0 0 0-1.2-13.4c-.2-3.6-1.7-4.6-5.3-4.3-3.6.2-6.7.2-10.3-.5-3.6-.7-7.7-.7-11.5-1.5-3.1-.2-6-1-8.6-2.1-5-2-7.7-6-10.4-10.6l-5.2-12c-3.2-7.9-4.8-16.3-4.8-25.7.2-5.7 1.4-11 4.3-16 4.8-9 12-14.2 21.6-15.6l6-.8 17.3-2.6c2.6-.5 4-2 4.8-4.3l.7-2.4c.7-8 1.7-15.6 1.4-24 0-2.7-1.2-4.1-3.3-4.8-2-.7-3.6-.7-5.6-1-3.8-.7-7.6-.7-11.5-1-2.1-.2-4.3-.2-6.5 0-5.5 1-10.8 1.7-16.3 4.4a128 128 0 0 0-17 8.9 44 44 0 0 0-15.4 14.4l-8.6 15c-1.2 2.7-2.4 5.1-3.1 7.8a157.5 157.5 0 0 0-5.8 43z" transform="rotate(-.8 1342.7 -1150.2)"/><path style="-inkscape-font-specification:&quot;Nickname DEMO&quot;;-inkscape-stroke:none" d="M505.3 707c-3.6 0-9.6.3-15.7 4.5A26.3 26.3 0 0 0 480 725a60.6 60.6 0 0 0-3.6 20.6l.2-2.5c-1 8.5.3 10.8.3 8.5v22c0 3.2-.4 6.8-.7 11.6v.6c-.3 8.7-.5 16.7-1.2 24.6v.5l-.5 12.8c-1 8.5-1.2 16.5-1.2 24.4v.7c.2 6 .2 11.8.2 18.2 0 4.5.3 8.1.3 10.8v1.4a25 25 0 0 0 7 16.4c5.8 5.8 11.1 6.3 13.9 6.9l-.5-.1 3.2.7 20.2 2.3c5.5 1 9.6.6 11.5.6 4.7 0 11.1-1.6 16-6.1a24.8 24.8 0 0 0 7.7-15.5v-.8c.3-3.8.6-8 .6-12.7 0-6.5 0-12.2.2-18.2V851l.3-5.1h1.4-1c3.5 0 3.2 0 1.7-.2h.4l2.3.1h1l-.4 2.9v-.4c0 1.7-.7 5.2-.7 10.3v.7l.7 11 .8 11.2v.4c1.1 6.9 3 17.8 7 21.6 4.6 4.1 11.2 6 16 6 4 0 9.8.1 16.8-1.5l.4-.1 6.5-1.9c4-.8 5.9-1 5.3-1h1.1c4.9.6 12-.6 17.3-4.8 5.4-4.3 7.8-10.1 8.6-14.5l.4-1.9V876.9c-.2-8-.7-14.9-.7-21.5 0-17 .3-33.5.5-50.8V804.3c0-2.2.4-5.6.7-10.3v-1.2c0-5 .3-10.2.3-16.3v-.9c-.3-6.8-1-12.6-1.3-17.3v-1.5c-.7-5-1-11-1.8-18l.2 2.4c0-5.2-.7-5.9-.9-7l-.2-1.3-.4-1.2c-1.4-4-4.5-9.2-9.4-12.5a25.4 25.4 0 0 0-14.2-4.3h-3.6l-11.5-.2H581c-4.6.5-11.6 2.9-16.1 8-4.6 5.3-3.8 11-4 15l-.2.8v2.5c0 6.5.3 12.2 0 17.7v.7l-.2 12H556l.2-20.6c0-1-.2-1.1-.3-2v-.9l-.1-18.7-.3-1a28 28 0 0 0-18.2-19.1l-1.3-.4-1.4-.1c-2.1-.3-5-.6-8.7-.6h.8l-12.4-.5h-.4c-.6 0-3.5-.5-8.6-.5zm11 40.6v.4zm.5 0h.8l.5 3.8-.2-2.3c0 .9.2 1.1.3 2l.2 21.3-.7 13.6v.5c0 4.3.8 10.6 5.9 16.4 1.8 2.2 4.1 3.7 6.5 4.9a22.7 22.7 0 0 0-15.1 20c-.4 2.8-.4 4.9-.4 6.6-.7 6-.8 11.2-1 15v2.5-.8l-.1 11.5c0-5 0-10-.2-15.4v.8c0-7.5.2-14.4 1-21.1l.2-.9.5-13.3c.7-8.9 1-17.3 1.2-25.6.2-3.2.7-7.7.7-13.5v-26zm82 8.9c0 1.6.1 2.7.3 4.3.3 6.3 1 11.8 1.2 16.1 0 4.6-.3 9.5-.3 15-.2 3-.7 7-.7 12.4-.2 17.2-.5 33.7-.5 51.1 0 4.2.2 7.6.4 11.4l-1.3.2-.7.2-.6-9 .6-6.6v-.5c.2-2.1.9-6 1.2-11.3.4-5.2 0-9.5-.2-12.8v1.5c0-4.7-1.6-11.6-6.7-16.6-1-1-2.2-2-3.4-2.7 1.3-.9 2.6-1.9 3.7-3A23 23 0 0 0 598 793c1.1-5.5.3-7.5.3-6.2.2-9 .4-17.4.4-26.6v-3.7zm18.4 108.8 1.1.1H617l.3-.1z" fill="#171717" transform="rotate(-.8 1342.7 -1150.2)"/><path style="-inkscape-font-specification:&quot;Nickname DEMO&quot;;-inkscape-stroke:none" d="M578.7 759.4c0 9.4-.2 18-.4 27.4 0 1.2.2 2.1 0 3.1-.3 2.2-1.2 3.4-3.4 3.4-2 0-3.8-.3-5.5-.5-4.8-.7-9.6-1.5-14.4-1.7-4.6-.2-8.9-.2-13.5-.2-2.6 0-3.8-1.5-3.8-4.4l.7-13.6-.2-22.1c0-.7-.3-1-.3-1.7l-1.9-16.6c-.5-2.1-1.7-3.6-3.6-4-2.1-.3-4.3-.5-6.5-.5l-12-.5c-2.8 0-5.7-.5-8.6-.5-3.8 0-5.3 1-6.5 4.6a39.5 39.5 0 0 0-2.4 13.9c-.2 2 .5 3.8.5 6v22c0 4.6-.5 8.7-.7 12.8-.3 8.6-.5 17-1.2 25.7l-.5 12.5c-1 7.9-1.2 15.6-1.2 23.5.2 6.5.2 12.5.2 19 0 3.5.3 7.1.3 10.7.2 3.6 1.2 4.4 4.8 5l2.1.6 19.2 2.1c3.2.7 6 .5 9.2.5 2.1 0 3.6-1.2 3.8-3.6.2-3.8.5-7.7.5-11.5 0-6.5 0-12.5.2-19v-1.4c.3-4.8.3-9.9 1-14.7 0-1.9 0-3.8.2-5.7.3-2.7 1.5-3.9 3.9-3.9.4-.2 1-.2 1.6-.2 4.8 0 9.4.2 14 0 1.6 0 2.8-.2 4.5 0 4.6.5 8.7.5 12.7-.2 1.2-.3 2.4-.5 3.4-.5 2.2 0 3.4 1.2 3.4 3.3.2 3.2.4 6.8.2 9.9-.2 3.8-1 7.7-1.2 11.5-.2 2.9-.7 5.8-.7 8.6l.7 10.4.7 10.8c.3 2.1.5 4.3 1.2 6.4.5 2.2 1.7 3.4 3.9 3.4 4 0 8.1 0 12.2-1l6.7-1.9c4.6-1 8.7-2.1 13.2-1.4 2.4.2 3.9-1 4.3-3.4v-4.3c-.2-7.4-.7-14.6-.7-22 0-17.4.3-34 .5-51.2 0-3.8.5-7.7.7-11.5 0-5.5.3-10.8.3-16.3-.3-5.8-1-11.6-1.2-17.3-.8-6-1-12-1.7-18 0-.7-.3-2-.5-3.1-.7-2.2-2.2-3.2-4.6-3.2h-3.6l-11.5-.2h-14.4c-2.6.2-3.8 1.7-4 4.6v1.6c0 6 .2 12 0 18.5z" transform="rotate(-.8 1342.7 -1150.2)"/><path style="-inkscape-font-specification:&quot;Nickname DEMO&quot;;-inkscape-stroke:none" d="M733.5 704.9a28 28 0 0 0-21.7 11c-4.8 6.4-8.5 13-12 19.8l-2.4-4.7-.2-.3-3.5-6.9.7 1.5a30.7 30.7 0 0 0-25.4-16.6h-.7l-12.2.8-.8.1c-3.4.5-8 .8-13.5 1.5-1.9 0-6-.3-11.4 1.2l3.4-.6c-4.7.4-14 5.6-18 11 4 26.3 8 39.4 22.2 63.8 2.4 4.9 5.6 11.9 11.7 19l3.2 4.4 5.2 8.4.3.6a195.4 195.4 0 0 1-.8 29.5l-.1.3c-2 15.9.6 32 1.7 47.8l.3.8c.9 1.2 2 2.5 3.4 3.9 7.7 7.1 15.4 6.3 19.1 6.1a247.6 247.6 0 0 1 15.9-.7l14.4.5h.4c2.5 0 5.9.4 10.8.7h1.2c4.2 0 10-1.4 14.4-4.8 4.5-3.3 6.9-7.7 8.1-11l.8-2 .3-2.2c-.1 1 1.4-3.6.5-10l.2 2.8c0-7.4-.5-13.4-.8-19.3l-.4-26.9v.4c0-5.7-.3-10.4-.5-15.4l4.4-8.4v-.2l6.6-12.1-.3.6c3.2-5.5 4.1-8.6 4.3-9l.4-.5 11-22.2v-.2c1.4-3 3.7-7 5.7-12.9 1.9-5.5 3.9-11.1 5.7-17.1l.3-1 .1-.9c1-4.5.9-11.6-3.3-17.9-4.2-6.3-10.8-9-15.2-10l-1.1-.2-7.5-.6h-3.1.9c-6.9-1.2-10.5-1-11.3-1.1l-1.2-.2-9.5-.6zm5.2 42.8-1.1 2.6-7.8 15.8 2.4-5.3v-.2c2-4.6 4.2-8.8 6.5-12.9z" fill="#171717" transform="rotate(-.8 1342.7 -1150.2)"/><path style="-inkscape-font-specification:&quot;Nickname DEMO&quot;;-inkscape-stroke:none" d="M675.2 877.3v4.8c.3 4.5 1.2 5.5 5.8 5.2 4.5-.2 9.1-.4 13.7-.4 1.2 0 2.4-.3 3.3-.3l14.7.5c4 0 7.9.5 12 .7 1.9 0 3-1 3.8-2.9.2-1.6.7-2.6.5-4.3 0-6.5-.5-12.2-.7-18.7l-.5-27.1c0-5.5-.3-10.1-.5-15.6a11 11 0 0 1 1-6.5c1.9-3.8 3.8-7.7 6-11.5l6.4-12c1.7-2.9 2.7-6 4.4-8.9l10.5-21.4c1.7-3.6 3.6-7.2 4.8-10.8 2-5.5 3.9-11 5.5-16.5.5-2.4-.4-3.9-2.8-4.3l-5.6-.5c-1.6 0-3.3 0-5-.3-3.8-.7-7.4-.4-11.3-1.2l-7.7-.4c-2.4 0-4.3 1-5.5 2.6a123.6 123.6 0 0 0-14.1 25.2l-11.6 25.7-1.4 2.1c-.7 1.2-1.7 1.2-2.4 0l-1.4-2.8c-1-2.2-1.7-4.4-2.4-6.3-3-7.4-5.8-14.6-9.9-21.3-1.9-3.6-3.8-7-5.5-10.6l-3.4-6.5c-1.2-2.9-3.6-4.3-7-4.3l-10.7.7c-5 .7-9.9 1-15.4 1.7-2.6 0-4.5-.2-7.2.5-2.6.2-3.3 1.7-2.6 4.3a16 16 0 0 0 2.1 4.6l8 13.6c4.5 7.7 8.1 15.6 12.7 23.3 2.9 5.8 5.5 11.5 10 16.3l3.7 5c2.1 3.7 4.3 6.6 6.2 10.2 1.4 2.1 2.2 4.3 2.4 6.2 1 6.5.7 12 .5 18.5a209 209 0 0 1-1.2 17.3l-1 10.5-1.4 15.9z" transform="rotate(-.8 1342.7 -1150.2)"/></g><g aria-label="beachy" style="-inkscape-font-specification:&quot;Nickname DEMO&quot;" font-size="240" font-family="Nickname DEMO" fill="#fff" fill-rule="nonzero" stroke="none" stroke-width="40" stroke-linecap="butt" paint-order="stroke fill markers" color="#000"><path style="-inkscape-font-specification:&quot;Nickname DEMO&quot;;-inkscape-stroke:none" d="M-13.7 916.8v-1c-2 13.1-.6 27.8-.9 39V955.5c0 2.8-.2 5.2-.4 8.4v.3l-.8 16.1c-.3 5.3-.2 8.2-.5 10.3l-.1.7v.7c-.8 8.2-1.6 16.6-1.3 26.4l.2 9.4v13.1l1 15.3c.2 3.6 0 5.2.2 4.6l-.4 1.4-.2 1.5c-.4 3.7-.3 6.6-.3 8.5 0 12.5 10 23.8 23.5 23.8 1.5 0 4.3.3 8.9 0 5.3-.4 9.5-1 12-1.2h.5l.5-.1c5-.6 11-.6 18-.8h1l1.1-.2c-.1 0 3 0 7.5-1.5l12.7-3.1.6-.2c3.8-1.2 12.6-2.2 22.2-9.4l.6-.4.6-.5c-2.9 2.5-2.7 2.2 3-1l1.2-.6 1-.8c-2 1.5-.3 1.6 5.1-3.8l8.7-8.6c4-4 5-6.5 5.4-7.1l.5-.7.4-.6c5-8.3 7.9-17.3 9.2-26.4a42.6 42.6 0 0 0-2-24.4l.2.7-1.7-4.6.2.4c-1.7-5-4.5-10.3-8.2-15.4a56.9 56.9 0 0 0 11.5-27.4c1-7.2.6-16-2.9-24.2l-.2-.6-6.2-12.4-4.7-6.8-2.3-1.8c-36.3-32.5-118.9-34.2-124.4 4.4Zm77 30.4.2 1.3c-.3-2.2-1-5-.2-1.3z" fill="#171717" transform="translate(21.1 52.6)"/><path style="-inkscape-font-specification:&quot;Nickname DEMO&quot;;-inkscape-stroke:none" d="M5.9 930c0 8.4-.3 17-.5 25.4 0 3.6-.2 6.8-.5 9.9L4.2 981c-.2 4.1 0 8-.7 12.5-.7 8.4-1.5 15.8-1.2 24.2l.2 9.9v12.5l1 14.6c.2 3.6.5 7.4-.5 11-.2 2.2-.2 4.4-.2 6.3 0 2.1 1.6 3.8 3.6 3.8 2.6 0 4.5.3 7.2 0 4-.2 8.4-1 12.4-1.2 6.5-.7 13-.7 19.5-1 1.7-.2 3.3-.2 5-.9l12.7-3.1c5.6-1.7 11.3-2.7 16.1-6.3 2-1.6 4.3-2.1 6.5-3.3 1-.7 2.2-1.2 2.9-2l8.6-8.6c1.2-1.2 2.2-2.9 3.4-4.5 3.6-6 5.7-12.8 6.7-20 1-4.5.7-8.8-1-13l-1.6-4.5c-3-8.4-7.2-15.1-15.6-19-3.6-1.9-3.9-2.3-.3-5 2.7-2.1 5.3-3.8 8-6.5 5.5-6 9.3-13 10.3-21.3.7-4.8.4-9.4-1.5-14l-5.3-10.5-2.1-3.1c-4.6-3.6-8.2-7.5-12.7-10.6a77.3 77.3 0 0 0-60.3-11.3c-4.5.8-8.6 1.7-13.2 2.7-3.1.7-4.8 2.6-5.3 5.7l-.4 2.2-.8 13.2zm40.5 90.2c0-3.6 0-6.4.3-9.6 0-2.1.7-3 2.4-3.3 3.8-.7 7.4-1.5 11.3-.7 5.5 1.2 8.6 4.5 10.8 9.3 2.8 6.5 0 11.3-3.6 14.9a12.5 12.5 0 0 1-4.1 2.9 44.6 44.6 0 0 1-12.5 4c-3.1.3-4-.4-4-3.5l-.6-11zm23.3-62.4c-.2 8.4-4.3 13-11.3 15.6a38 38 0 0 1-7.4 2.2c-2.6.5-4-.5-4.3-3.1-1-5-1.5-10.1-2.2-14.9-.2-2.6-.2-4.8-1-7.4-.7-4.8.5-6.3 5.3-5.6 5.6.8 10.1 2 15 3.9 4 1.4 6 4.5 6 9.3z" transform="translate(21.1 52.6)"/><path style="-inkscape-font-specification:&quot;Nickname DEMO&quot;;-inkscape-stroke:none" d="M178.7 892H172c-5.6 0-10.3.5-14.2.7l-7.8-.2c-2.7 0-6 0-9.9.3h1.7-4.8c-6 .3-13.1 3.1-17.8 8.2a26.5 26.5 0 0 0-6.7 16v-.7l-.6 6.5c-.8 5.8-1.6 12.2-1.8 19.7v.7c0 7.4-1 15.8-1.7 25l-2.1 28.4v-.5c-.7 7.2 6.8 14.3 6.5 21.5-.7 8.9-1 17-1.2 24.8v.3l-8 19v.2c-.6 3.4-1 6.6-1.2 9a25.2 25.2 0 0 0 7.5 19.7c5.7 5.2 13 6.7 18.7 6.2h.5c2-.3 3.3-.2 2.3-.3l-.9-.1c8.4 1.3 15.5-.1 20.5-1.1h.1l.1-.1a77 77 0 0 1 23-1.5h1.4c5.6 0 11.8.1 19-.8h-.8l7.8-.6c.5 0 3.7.1 8.8-.3h-.5c4-.2 8.4-.5 13.5-1.3 10.6-1.5 19.7-13 20.6-21.4l.1-1.1v-3.3c.3-2.6.5-6 .2-10.3 0-5.2-.5-9.6-.7-13.3v-3.8l-.1-1.3c-15.8-20 6.8-50.3-10.2-70.9a24 24 0 0 0-7.1-5c.4-.4.9-.7 1.2-1.2 4.3-5.3 4.8-10.5 5-12.7l.2-1.1v-3.1l-.7-12.8.2-5c0-1.3.4-5.9-1-11.6-1-4.3-3.5-9.9-8.4-13.8-5.1-4.1-11.3-5.3-15.6-5.3h1.8c-2.3-.1-6.1-.6-10.8-.2h1c-3.3.1-7.3-.4-13-1l-.6-.2h-.6l-6-.4zm38.6 162.9h.2-.2z" fill="#171717" transform="translate(21.1 52.6)"/><path style="-inkscape-font-specification:&quot;Nickname DEMO&quot;;-inkscape-stroke:none" d="M211.8 930c.2-2 .2-3.8.2-5.5 0-2.7.3-4.6-.5-7.2-.4-2.4-1.9-3.6-4.5-3.6-2.7-.3-4.6-.5-7.2-.3-5.5.3-10.8-.4-16.3-1.2-3.6-.2-7.2-.4-10.8-.2-5 0-9.9.5-14.7.7l-8.1-.2c-2.7 0-5.3 0-8.2.2h-3.6c-3.8.3-5.5 2.7-5.8 5.8l-.7 6.5c-.7 6-1.4 11.7-1.7 18.2 0 8.9-1 17.8-1.6 26.6l-2.2 28.4a298 298 0 0 0-1.4 20.6c-.8 8.4-1 16.3-1.2 24.2V1063.4c-.8 3.2-1 6-1.2 9.2-.3 2.8 1.6 4.5 4.5 4.3 2.2-.3 4.6-.5 6.7-.3 4.6.8 8.7 0 13.2-1a97.2 97.2 0 0 1 28.8-1.8c5.6 0 10.8 0 16.4-.8l7.9-.7c2.9-.2 6 0 8.9-.2 4-.3 7.9-.5 12-1.2 1.9-.3 3-1.7 3.3-3.9v-2.8c.3-3 .5-5.6.3-8.4 0-4.6-.5-9.2-.8-14v-3c-.2-2-1.2-3.2-3-3.7-.8-.2-1.8-.2-3-.2-7.4-.3-14.4 0-21.8-.3-5.5 0-10.3 0-15.4 1-3.6.7-7 .7-10.5.5-2.7-.3-4-1-4-3.6l.1-5.5c0-2.7.3-5.6.5-8.4 0-2.2.7-2.4 3-3.2l6-.7c8.5-1.2 17.4-2.6 26.3-2.4 1.7 0 2.6.3 4.3.3 4.6.2 8.4-1 13-1.7 2.1-.5 3.1-2 3.1-4.1 0-1.7-.2-3.6-.5-5.3l-1.4-18.7c-.3-3.1-2-4.8-4.8-5-6-.8-12-1.2-18.5-1.5-3.6-.2-7-.2-10.6-.2h-11.2c-1.7 0-2.7.2-4.4 0-1.9-.3-2.8-1.2-3-3.1-.8-2.7-.6-5.3-.6-8a61 61 0 0 1 0-9.3c0-3.6.3-4.3 3.9-5 4-.8 8.1-1 12.2-1.3 7.5-.2 14.7-.2 22.1-1.2 1.2 0 2.2 0 3.8-.2 2.7-.7 3.2-1.7 3.4-3.8v-1.5z" transform="translate(21.1 52.6)"/><path style="-inkscape-font-specification:&quot;Nickname DEMO&quot;;-inkscape-stroke:none" d="M293.7 894.4c-7.6 0-14.4.9-20.6 1.6l1-.1c-5 .3-11 2-15.9 6-5 3.9-8 9.6-9.3 14.6l1-2.8c-1 2.1-2.3 6.4-2.7 9.2l.3-1.9-5.5 23v-.2c-3 12-5.2 23.9-7.2 35.7l-.2.8v.8c-.3 3-.5 5.1-.7 5.7v.4l-5.2 24.5c-1.1 5.6-2.6 11.7-4 18.8l.1-.2-5.3 26.6.2-.6c-1.2 5-1.5 8.2-1.6 8.8l-.1.4-.1.5c-1 4.5-1 11.6 3.5 18.2 3.5 5 8.6 7.7 13 9 5.2 1.9 7.3 1 7.9 1h1.3l1.3-.1c3.4-.5 8.3-.2 15.8-1.3l-1 .2 20.2-2h-.2c3.3-.2 8.4-1 13.5-4.7 5-3.6 8-9.3 9.3-13.7 1.2-3.9 1.6-7 1.8-9v-.1c.7-4.8 1.6-10.2 1.9-16.3V1046.9l.2-2 1 6.8 3.3 18-.2-.7c.7 5.3 3.4 12.3 9.6 17a26.3 26.3 0 0 0 19.1 5h-.8l5.9-.1 8.1.2c3.9 0 6.7-.3 9-.5h.4c-.7 0 3.3.6 10.3-1.6 2.3-.6 7-1.5 12-7.5 5.3-6.4 5.1-12.9 5.1-15.4v-1l-1-10.4v-.2c-.1-.3-.2-1.4-.2-3.5v-1.3l-.1-1.2c-.6-4.8-.9-10.3-1.7-17v-.5c-.5-3-.5-7.7-1.5-14.4l.2 1.7a117 117 0 0 0-1.8-14.2l.1.6-1.9-12.1c-1-7.5-2.5-13.7-3.3-19.2V973.1c-1-6-1.5-13.3-2.3-21.4v-1l-.3-.9a89 89 0 0 1-.8-9.3v-.6l-2.1-16.7v-.4c-.3-1.7.8-6-5.3-13.9-6-7.8-14-8.8-18.3-9.3l-16.8-2-14-1.8c-8.2-1.2-13.5-.7-15.4-1h-1.1c-2.8-.3-5.4-.4-8-.4zm38.8 33.3c.1.2.3.6.4 1.3v.2c-.5-1.1-.6-1.8-.4-1.5zm-35.5 6.7c2.5.4 4.2.4 6.2.5-3.9.5-8.3 2-11.8 4.6a24.8 24.8 0 0 0-8.1 11c-2.4 6.6-2.2 8.7-1.7 7l-.2.7-.2.8c-2 7.6-2.9 14.5-4 20.7-.6 2.1-1.2 4.3-1.6 6.5-21 29.2-11.7 117.7-1.3-.7a386 386 0 0 1 6.5-31.8v-.2l4.5-18.6c4.7-.4 9-.7 12.9-.3zm20.6 1.7 9.6 1.3 6.8.8.7 5.5c.2 3.7.4 8.2 1.4 13.5l-.2-1.8v1.3a25 25 0 0 0-8-15.4c-3.2-3-7-4.4-10.3-5.2zm20.8 43.2v.2zm2.1 12 1.3 7.2c19.3 78-17.2 18.3-6.6 5a24 24 0 0 0 5.3-12.3zm-97.5 62.6.7.2h-1.4.3l-.4.1c-.2 0 0-.3.8-.3zm14.1 19.5v.4l-.2 1c.2-.8 0-.8.2-1.4z" fill="#171717" transform="translate(21.1 52.6)"/><path style="-inkscape-font-specification:&quot;Nickname DEMO&quot;;-inkscape-stroke:none" d="M368.3 1057c-.3-2-.3-3.9-.3-6-.7-5.8-1-11.3-1.7-17-.7-4.9-.7-9.7-1.4-14.5-.2-3.8-.7-7.9-1.4-11.7l-2-12.3c-1-6.5-2.4-12.7-3.3-19.2-1.2-7.4-1.7-15.1-2.4-22.8-.7-3.8-1-7.9-1.2-11.7l-2-15.9c-.7-4.5-.4-5.7-6.2-6.5l-16.8-1.9-14.4-1.9c-5-.7-10.3-.2-15.3-1-8.4-.7-16.1.3-24.5 1.2-3.9.3-6.3 2.2-7.2 5.8-.7 1.7-1 2.4-1.2 4l-5.5 23.1c-3 11.3-5 22.6-7 34.1-.2 2.9-.5 6-1.2 8.9l-5 24c-1.2 6-2.7 12-3.9 18.5l-5.3 26.6c-.7 3.1-1 6.2-1.6 9.1-.5 2.4.4 3.9 2.8 4.1.5.2 1.2.2 2 .2 5.5-.7 10.5-.4 15.6-1.2l20.1-1.9c3-.2 4.6-1.2 5.3-4 .7-2.2 1-4.4 1.2-6.5.7-4.8 1.4-9.6 1.7-14.4.2-6.5 1.4-12 2.1-18.5.3-3.1 1.2-3.6 4.4-3.4 3.6.3 6.4.3 10 .3 5 0 10.4.7 15.9 1.9 5 1.7 5.5 1.9 6.5 7l2.1 15 3.1 17.8c.5 3.6 2.7 5.3 6.3 4.8 2.6-.2 5-.2 7.7-.2l8.1.2c2.7 0 4.6-.2 7.2-.5 2.2-.2 4.3 0 6.5-.7 2.6-.7 3.1-1.2 3.1-3.8zm-47.6-69.4c0 2.6-1.2 4-3.6 4.3l-17 1c-.2.2-.7.2-1.4.2-2.7.3-3.9-1-3.4-3.6a20 20 0 0 1 1.4-5c1.2-7 2.2-14 3.9-20.7.7-2.1.7-4.3 1.4-6.2.7-2 2-2.9 3.9-2.9 2.1 0 4.3.3 6.4.5 2 .2 3.2 1.2 3.6 3.4 1 3.6 1.7 7.4 2.4 11 1 5.8 1.5 11.5 2.2 17.3 0 .2.2.2.2.5z" transform="translate(21.1 52.6)"/><path style="-inkscape-font-specification:&quot;Nickname DEMO&quot;;-inkscape-stroke:none" d="m451.4 888.2-5.4.3-.6.1-.6.1c-5 .9-12.8 1.8-21.5 6-5.7 2.6-12.4 5.6-19.3 10.1a63.6 63.6 0 0 0-21.7 21l-.1.1L373 942l-.4.8c-1 2.3-2.8 5.6-4.2 10.7a177.7 177.7 0 0 0-6.5 48.3v1c.2 3.4-.1 9.1 1 16.6v.6l2.4 10.7-.2-.8c1.6 9.2 4.9 17.9 9.4 25.9a73.6 73.6 0 0 0 28.7 28.6 97.7 97.7 0 0 0 62.7 9.9h.5l.6-.2c2-.4 5.4-.8 10-2 4.7-1 10.4-3.6 14.4-8.5 17-29.5-8.3-70.7-23-70.4-2.8.2-3.6.2-5 0-6.5-1.4-10.4-1.3-11.8-1.6l-1-.2h-1.1a5 5 0 0 1-1.8-.5l-.8-1.4-4.6-10.4a48 48 0 0 1-3.4-17.8c.2-3.1.7-4.8 1.7-6.6l.1-.2.1-.2c2.4-4.4 3-4.7 6.9-5.3l5.8-.7 18-2.7h.2c8.3-1.6 18.2-11 20.4-18.3l1.3-4.4.1-2c.7-7.4 1.8-16 1.6-26 0-4.4-1.3-10-4.8-14.7a25.4 25.4 0 0 0-11.8-8.7c-5.4-2-9.3-2-9.8-2l1.2.2c-6.2-1.2-11-1-14-1.3l1 .1c-1.8-.2-3.6-.3-5.5-.3z" fill="#171717" transform="translate(21.1 52.6)"/><path style="-inkscape-font-specification:&quot;Nickname DEMO&quot;;-inkscape-stroke:none" d="M382 1001.8c.2 4.8 0 9.8.7 14.6l2.1 10a59 59 0 0 0 28.3 40.6c7 4.1 14.2 6.8 21.4 8.2 4.6 1 8.6 1.7 13.2 1 5-.8 10.3-1 15.4-1.7 3.6-.7 6.7-1 9.8-2 2.6-.4 4-2.1 4-5-.2-5.5 0-11-.6-16.5a127 127 0 0 0-1.2-13.5c-.3-3.6-1.7-4.5-5.3-4.3-3.6.2-6.7.2-10.3-.5-3.6-.7-7.7-.7-11.6-1.4-3-.3-6-1-8.6-2.2-5-1.9-7.7-6-10.3-10.5l-5.3-12c-3.1-8-4.8-16.4-4.8-25.7.2-5.8 1.4-11 4.3-16.1 4.8-8.9 12-14.2 21.6-15.6l6-.7 17.3-2.7c2.6-.4 4-1.9 4.8-4.3l.7-2.4c.7-7.9 1.7-15.6 1.5-24 0-2.6-1.2-4-3.4-4.8-2-.7-3.6-.7-5.5-1-3.9-.7-7.7-.7-11.5-.9-2.2-.2-4.4-.2-6.5 0-5.5 1-10.8 1.7-16.3 4.3a128 128 0 0 0-17 8.9 44 44 0 0 0-15.4 14.4l-8.7 15.1c-1.2 2.7-2.4 5-3 7.7a157.5 157.5 0 0 0-5.8 43z" transform="translate(21.1 52.6)"/><path style="-inkscape-font-specification:&quot;Nickname DEMO&quot;;-inkscape-stroke:none" d="M505.5 888.2c-3.5 0-9.6.3-15.6 4.5a26.3 26.3 0 0 0-9.7 13.4 60.6 60.6 0 0 0-3.5 20.5l.1-2.4c-1 8.4.3 10.7.3 8.4v22.1c0 3.2-.4 6.7-.6 11.6v.6c-.3 8.6-.5 16.6-1.2 24.6v.4l-.5 12.9c-1 8.4-1.3 16.5-1.3 24.3v.8c.3 6 .3 11.7.3 18.2l.2 10.8V1060.2a25 25 0 0 0 7 16.4c5.9 5.9 11.2 6.4 14 7l-.5-.2 3.2.8 20.2 2.2c5.5 1 9.6.6 11.4.6 4.8 0 11.2-1.6 16.1-6a24.8 24.8 0 0 0 7.7-15.6v-.7c.3-3.8.5-8.1.5-12.8 0-6.5 0-12.2.3-18.2v-1.6c0-2.2.2-3.3.3-5h1.4-1c3.5 0 5.1 0 3.6-.3l.4.1h1.3l-.3 2.9v-.4c-.1 1.8-.8 5.2-.8 10.3v.7l.8 11 .7 11.2v.4c.3 2.1.5 6 2 10.5 1 3.6 1 7.5 5 11.1 4.6 4.2 11.2 6 16 6 4 0 9.9.2 16.8-1.4l.5-.2c10-1.1 23-2.2 30.2-7.7 5.3-4.2 7.7-10 8.6-14.4l.4-2V1058c-.3-7.9-.7-14.9-.7-21.4 0-17.1.2-33.6.4-50.9V985.4c0-2.1.4-5.6.7-10.2V973.9c0-5 .3-10.2.3-16.3v-.8c-.3-6.9-1-12.7-1.2-17.3v-.8l-.1-.8c-.6-5-.9-11-1.7-18l.1 2.4c0-5.1-.6-5.8-.8-7l-.3-1.2-.4-1.2c-1.3-4-4.5-9.3-9.4-12.6a25.4 25.4 0 0 0-14.1-4.2H609c-3 0-6.9-.3-11.5-.3h-15.3l-1 .1c-4.6.4-9.5 2.8-14 8-4.7 5.2-3.8 11-4.1 14.8l-.1.9v2.5c0 6.5.2 12.2 0 17.7v.8l-.2 11.9-5.4.2c0-7.2-1-14.2-1-20.8l-.2-1.9v-1l-.2-18.6-.2-1a28 28 0 0 0-18.3-19.2l-1.3-.3-1.3-.2c-2.2-.2-5-.6-8.7-.6h.8l-12.4-.5h-.4c-.7 0-3.5-.4-8.7-.4z" fill="#171717" transform="translate(21.1 52.6)"/><path style="-inkscape-font-specification:&quot;Nickname DEMO&quot;;-inkscape-stroke:none" d="M579 940.6c0 9.3-.3 18-.5 27.3 0 1.2.2 2.2 0 3.1-.2 2.2-1.2 3.4-3.4 3.4-1.9 0-3.8-.2-5.5-.5-4.8-.7-9.6-1.4-14.4-1.7-4.5-.2-8.9-.2-13.4-.2-2.7 0-3.9-1.4-3.9-4.3l.8-13.7c0-7.4-.3-14.6-.3-22l-.2-1.8-2-16.5c-.4-2.2-1.6-3.6-3.5-4.1-2.2-.2-4.4-.5-6.5-.5l-12-.5c-2.9 0-5.8-.4-8.7-.4-3.8 0-5.2 1-6.4 4.5a39.5 39.5 0 0 0-2.4 14c-.3 1.9.4 3.8.4 6v22c0 4.6-.4 8.7-.7 12.7-.2 8.7-.5 17-1.2 25.7l-.5 12.5c-1 8-1.2 15.6-1.2 23.5.3 6.5.3 12.5.3 19l.2 10.8c.3 3.6 1.2 4.3 4.8 5l2.2.5 19.2 2.2c3.1.7 6 .4 9.1.4 2.2 0 3.6-1.2 3.8-3.6.3-3.8.5-7.6.5-11.5 0-6.5 0-12.5.3-19v-1.4c.2-4.8.2-9.8 1-14.6 0-2 0-3.9.2-5.8.2-2.6 1.4-3.8 3.8-3.8.5-.3 1-.3 1.7-.3 4.8 0 9.3.3 14 0 1.6 0 2.8-.2 4.5 0 4.5.5 8.6.5 12.7-.2 1.2-.2 2.4-.5 3.3-.5 2.2 0 3.4 1.2 3.4 3.4.2 3.1.5 6.7.2 9.8-.2 3.9-1 7.7-1.2 11.5-.2 3-.7 5.8-.7 8.7l.7 10.3.8 10.8c.2 2.2.4 4.3 1.2 6.5.4 2.1 1.6 3.3 3.8 3.3 4 0 8.2 0 12.2-1l6.8-.7c4.5-1 8.9-.8 13.4-1.4 2.4.2 3.6-2.1 4-4.5v-4.4c-.2-7.4-.6-14.6-.6-22 0-17.3.2-33.9.4-51.2 0-3.8.5-7.6.8-11.5l.2-16.3c-.2-5.8-1-11.5-1.2-17.3-.7-6-1-12-1.7-18 0-.7-.2-1.9-.5-3.1-.7-2.2-2.1-3.1-4.5-3.1H609c-3.9 0-7.7-.3-11.5-.3H583c-2.7.3-3.9 1.7-4.1 4.6v1.7c0 6 .2 12 0 18.5z" transform="translate(21.1 52.6)"/><path style="-inkscape-font-specification:&quot;Nickname DEMO&quot;;-inkscape-stroke:none" d="M733.8 886a28 28 0 0 0-21.7 11c-4.8 6.4-8.6 13.1-12 19.9l-2.4-4.7-.2-.4-3.6-6.8.8 1.5a30.7 30.7 0 0 0-25.5-16.7h-.6l-12.3.9h-.7c-3.5.6-8 .9-13.5 1.5-2 0-6-.3-11.5 1.2l3.5-.6c-4.8.4-13.5 3.3-18 11.1-4.6 7.8 6.8 14.6 7.8 18.4v.1l.1.1c1.1 3.9 3 7.5 4.7 10.2l-.6-1-2 13.7v.1c3.7 6.2 7.2 13.7 12.1 22.1 2.4 5 5.6 12 11.7 19l3.2 4.5c2.4 3.8 4.2 6.5 5.2 8.3l.3.6c.5 4 .5 7.8.2 13.9.2 23-6 58 4.3 68.4 7.7 7.2 15.4 6.4 19.2 6.2a247.5 247.5 0 0 1 15.9-.7l14.4.4h.3c2.5 0 6 .4 10.8.7h1.2c4.3 0 10.1-1.4 14.5-4.7 4.4-3.4 6.8-7.7 8-11l.8-2.1.3-2.2c0 1 1.4-3.5.5-10l.2 2.9c0-7.4-.5-13.5-.7-19.3l-.5-27v.4c0-5.7-.2-10.3-.4-15.3 1.4-3 2.9-5.9 4.3-8.5l.1-.1 6.6-12.2-.3.6c3.1-5.4 4.1-8.6 4.3-8.9l.3-.6 11-22.2v-.2c1.5-2.9 3.8-7 5.7-12.9 2-5.4 4-11.1 5.7-17l.3-1 .2-1c.9-4.4.8-11.6-3.3-17.9-4.2-6.2-10.8-9-15.3-10l-1-.1-7.5-.7h-3.1l.8.1c-6.8-1.3-10.4-1-11.2-1.2l-1.3-.2-9.5-.6zm5.2 42.9-1.2 2.6-7.8 15.8 2.4-5.4v-.1c2-4.6 4.3-8.9 6.6-13zm-23.6 46.7-4.8 9.3.5-1c-3.9 6.9-4 13.4-3.5 18.2v-1c.2 5.7.4 9.9.4 14.8v.2l.5 27.5v.2l.2 4.3-10.1-.3h-.3c-2.6 0-1.8 0-2 .1l.3-3.5 1-10.6-.1.7c.8-6.9 1-13.2 1.3-19 .2-6.4.6-13.5-.6-21.9-.6-4-2-8-4.2-12a20.5 20.5 0 0 0 21.4-6z" fill="#171717" transform="translate(21.1 52.6)"/><path style="-inkscape-font-specification:&quot;Nickname DEMO&quot;;-inkscape-stroke:none" d="M675.5 1058.4v4.8c.2 4.6 1.2 5.5 5.7 5.3 4.6-.3 9.1-.5 13.7-.5l3.4-.2 14.6.4c4 0 8 .5 12 .8 2 0 3.1-1 3.8-3 .3-1.6.8-2.6.5-4.2 0-6.5-.5-12.3-.7-18.8l-.5-27c0-5.6-.2-10.2-.5-15.7a11 11 0 0 1 1-6.5c2-3.8 3.8-7.6 6-11.5l6.5-12c1.7-2.9 2.6-6 4.3-8.9l10.6-21.3c1.6-3.6 3.6-7.2 4.8-10.8 1.9-5.5 3.8-11 5.5-16.6.5-2.4-.5-3.8-2.9-4.3l-5.5-.5c-1.7 0-3.4 0-5-.2-3.9-.7-7.5-.5-11.3-1.2l-7.7-.5c-2.4 0-4.3 1-5.5 2.6a123.6 123.6 0 0 0-14.2 25.2l-11.5 25.7-1.5 2.2c-.7 1.2-1.6 1.2-2.4 0l-1.4-2.9c-1-2.2-1.7-4.3-2.4-6.2-2.9-7.5-5.8-14.7-9.8-21.4-2-3.6-3.9-7-5.6-10.6l-3.3-6.4c-1.2-3-3.6-4.4-7-4.4l-10.8.8c-5 .7-9.8 1-15.3 1.6-2.7 0-4.6-.2-7.2.5-2.7.3-3.4 1.7-2.7 4.3a16 16 0 0 0 2.2 4.6l8 13.7c4.5 7.7 8 15.6 12.6 23.3 3 5.7 5.5 11.5 10.1 16.3l3.6 5c2.2 3.6 4.3 6.5 6.2 10.1 1.5 2.2 2.2 4.3 2.4 6.2a209 209 0 0 1-.7 35.8l-1 10.6-1.4 15.8z" transform="translate(21.1 52.6)"/></g><g aria-label="ball!" style="-inkscape-font-specification:&quot;Nickname DEMO&quot;" font-size="353.1" font-family="Nickname DEMO" fill="#fff" fill-rule="nonzero" stroke="none" stroke-width="40" stroke-linecap="butt" paint-order="stroke fill markers" color="#000"><path style="-inkscape-font-specification:&quot;Nickname DEMO&quot;;-inkscape-stroke:none" d="m53.7 1063.5-1.5.2c-5.7.8-13 1.2-21.8 3-7.4 1.1-13.7 2.6-20 3.9H10a34.3 34.3 0 0 0-23 25l.4-1.8c-.2.6-1.3.6-1.3 8v-1l-2.2 40.4h1c0 5.7 0 11.2-.2 16.9v.6c0 4.4-.3 8.3-.7 13v.2l-1 23.6v-.2c-.5 7.5-.2 12-1 16.4v1.4c-1.1 12.2-2.3 24-2 37.8.1 5.9.4 9.8.4 14v19l1.5 22.3c.3 5.2.2 8.7-.1 9.7l-.4 1.5-.1 1.5c-.6 4.6-.5 8.5-.5 11.4A25.5 25.5 0 0 0 6 1355.9c2.6 0 6.4.5 12.2 0 7.2-.5 13.5-1.5 17.9-1.8h1c8.1-1 17.1-1 27.2-1.4h1l1-.2c.6 0 4.4 0 9.9-1.9l18.8-4.6.5-.1c6.4-2 18-3.5 29.8-12.3l.6-.5.6-.5c-2 1.7-.6 1.2 6-2.5l1.3-.7 1-.8c-1.5 1.2.7 1.1 6.4-4.7l12.7-12.7c4.6-4.6 6-7.8 7.1-9.2l.5-.7.4-.6a95.7 95.7 0 0 0 12.3-35.8c2-9.8 1.6-20.6-2.5-30.5l.3.7-2.5-6.7.2.4c-3-8.8-8-18-15-25.9a75.7 75.7 0 0 0 19.4-41.2c1.4-9.5.9-20.5-3.5-31l-.3-.5-8.7-17.4-5.7-8.2-2.3-1.9c-5.3-4.2-10.8-10.2-19.8-16.3l-.2-.1-.1-.1c-13.9-9.1-28.3-15.2-43.4-19.5-6.6-2.9-11-2.3-8.2-1.8l-1.4-.3-22.3-1.1 5.3 1a32 32 0 0 0-10.7-.9c-2.4.4.6-.1 2.3-.1zm2 39.9h.1-.6.5zm.8 0 18.8 1c1.9.4 2.7.5 1.7.2l1.1.3c12.5 3.4 23 7.8 33.3 14.6 3.9 2.6 8.5 7.1 15 12.4l.8 1.3 6.7 13.3a16 16 0 0 1 .7 9.6v.3l-.1.3c-.9 7.5-4 13.4-9.7 19.8-2 2-5 4-9.6 7.7l-3.3 2.8c4.7-7.1 7.1-15.7 7.4-24.2v-.6a36 36 0 0 0-5.3-19.5 33.7 33.7 0 0 0-16.6-13 109 109 0 0 0-26-6.7c-2.9-.4-5.9-.8-10-.2-4.1.6-10 2.7-14.4 7.4-8.6 9.2-6.8 18.2-6 23.7l.2 1.1.3 1.2c.3 1.2.4 2.6.8 7.5v.5l.1.6c1 6.3 1.7 14 3.3 22.7l-.2-2a26 26 0 0 0 10.2 18.6c7.1 5 14.7 4.8 19.6 3.9 5.2-1 10.1-2.4 14.6-4.2a49 49 0 0 0 16.7-10.4 21.4 21.4 0 0 0 6.2 28.2c2.6 1.9 4.1 2.6 5.7 3.4l.5.3.6.3c6.7 3 9 6.5 12.3 16.2l.1.2 2.7 7.3.1.3c.9 2 1.1 3.8.4 7.3l-.2.8-.1.7a55.8 55.8 0 0 1-7.1 21.5c-1.3 1.8-2.8 3.8-2 3l-12.8 12.8c3-3 2-2.2-.3-.4-.6 0-5.5 1-12.5 7.2l1.2-1c-2.2 1.7-7.6 3.1-17 6l-19.7 4.8-1.5.6c1.7-.7 1.3-.5-1.4-.1-8.6.3-18.2.3-28.6 1.4-4.5.3-7.6.7-11.1 1.1.2-4.6-.1-8.6-.3-11.8l-1.4-20.8v-17.8c0-6.1-.3-10-.3-14.4v-.6c-.4-10.9.6-20.9 1.7-33.4l-.2 1.4c1.4-9 1-15.8 1.3-20.3v-.1l1-23.4v.6c.3-4.6.8-9.8.8-16 .3-12.2.7-25 .7-37.5v-5.9l.3-7c3.8-.8 7.8-1.7 11.4-2.3h.4l.4-.1c4.8-1 11-1.4 18.6-2.5zm23.6 42.2.5 2.3v1c-.1-1.2-.2-2-.5-3.3zm56.1 43.6.4.2-.4-.2zM82 1213.4c-6.5-.2-11.8 1-15.9 1.8-4.5.6-11.8 3.6-16 9.4a24 24 0 0 0-4.6 14c-.4 5.4-.4 10.2-.4 15.4v4.7l.8 16.7v-1c0 4.4.3 13 8.2 19.8 8 6.8 15.3 5.8 19.3 5.5h1l1-.2c7.1-1.3 15-3.6 22.8-7.4a41 41 0 0 0 12.2-8.4c3.9-4 8.4-9.3 11-17.3a39 39 0 0 0-1.6-26.9 45.4 45.4 0 0 0-30-25.2h-.5c-2.6-.6-5-.8-7.3-.9z" fill="#171717" transform="rotate(-1.3 4063.3 428)"/><path style="-inkscape-font-specification:&quot;Nickname DEMO&quot;;-inkscape-stroke:none" d="M5.4 1121.2c0 12.4-.4 25.1-.7 37.5 0 5.3-.4 9.9-.7 14.4l-1.1 23.3c-.4 6 0 11.7-1 18.4-1.1 12.4-2.2 23.3-1.8 35.7 0 5.3.3 9.2.3 14.4v18.4l1.4 21.5c.4 5.3.7 11-.7 16.3-.3 3.2-.3 6.3-.3 9.2 0 3.1 2.4 5.6 5.3 5.6 3.9 0 6.7.4 10.6 0 6-.3 12.3-1.4 18.3-1.7 9.6-1.1 19-1.1 28.6-1.5 2.5-.3 5-.3 7.4-1.4l18.8-4.6c8-2.4 16.6-3.8 23.6-9.1 2.8-2.5 6.4-3.2 9.5-5 1.5-1 3.2-1.7 4.3-2.8l12.7-12.7c1.8-1.8 3.2-4.3 5-6.7a76 76 0 0 0 9.8-29.3c1.4-6.7 1-13.1-1.4-19.1l-2.5-6.7c-4.2-12.4-10.6-22.3-23-28-5.2-2.7-5.6-3.4-.3-7.3 4-3.2 7.8-5.7 11.7-9.6a55 55 0 0 0 15.2-31.4c1-7 .7-13.8-2.1-20.5l-7.8-15.5-3.2-4.6c-6.7-5.3-12-11-18.7-15.5-12.4-8.1-25-13.4-39.2-17.3-1.8-1-3.5-.7-5.3-1l-20.8-1.1c-1-.4-1 0-2.1 0-7.1 1-14.2 1.4-21.2 2.8-6.7 1-12.7 2.5-19.5 3.9-4.5 1-7 3.9-7.7 8.4-.4 1.5-.7 2.5-.7 3.2l-1 19.4zM65 1254c0-5.3 0-9.5.4-14.1 0-3.2 1-4.6 3.5-5 5.7-1 11-2 16.6-1 8.1 1.7 12.7 6.7 16 13.7 4.1 9.6 0 16.6-5.4 22a18.5 18.5 0 0 1-6 4.2c-6.3 3.2-12.3 5-18.4 6-4.5.3-6-.7-6-5.3l-.7-16.3zm34.3-91.8c-.4 12.4-6.4 19-16.6 23-3.5 1.4-7 2.4-11 3.1-3.8.7-6-.7-6.3-4.6-1.4-7.4-2.1-14.8-3.2-21.9-.3-3.8-.3-7-1.4-10.9-1-7 .7-9.2 7.8-8.1 8 1 14.8 2.8 21.9 5.6 6 2.1 8.8 6.7 8.8 13.8z" transform="rotate(-1.3 4063.3 428)"/><path style="-inkscape-font-specification:&quot;Nickname DEMO&quot;;-inkscape-stroke:none" d="M256.8 1078.3c-10.4 0-20 1.2-29.1 2.2h1c-5.9.3-12.6 2.3-18.1 6.7-4.7 3.7-7.9 8.9-9.7 14a50 50 0 0 0-3.1 10.9l.3-1.9-8 33.6a619.6 619.6 0 0 0-10.6 51.8l-.1.8-.1.9a76 76 0 0 1-1.3 9.8v.4l-7.6 35.8c-1.6 8.4-3.8 17.4-5.7 27.5v-.2l-7.7 39.2.1-.6c-1.5 6.5-1.9 11-2.4 13v.5l-.2.5c-1 5-1 12.6 3.8 19.5a25 25 0 0 0 14.2 9.5c5.4 2.1 7.8 1.2 8.7 1.2h1.3l1.3-.1c6-.8 13.3-.4 23.2-1.8h-1l29.5-2.7a29 29 0 0 0 15.1-5.3c5.3-3.8 8.7-10 10.2-15 1.5-5.1 2-9.4 2.4-12.4 1-7 2.2-14.6 2.6-23v-.2c.2-4 .7-8.1 1.3-12.6h3c4.2 0 9 .6 14 1.5l2.3 17 4.7 26.5-.1-.9a29 29 0 0 0 10.4 19 29 29 0 0 0 21.2 5.3h-.8c2.8-.2 5.6-.2 9.5-.2 2.6 0 6.6.4 12 .4 5 0 8.8-.5 12.4-.8h.4c.2-.1 5.3.7 13.3-2 2.8-.7 7.8-1.6 13.1-8 5.6-6.7 5.5-13.5 5.5-16.7v-1l-1.5-14.7v-.2c-.2-1.1-.3-3.1-.3-6.3v-1.2l-.1-1.3c-1-7.4-1.3-15.6-2.5-25v-.5c-.8-4.8-1-11.4-2-19.5-.4-6.5-1.2-13.2-2.4-19.7v.5l-2.7-17.8c-1.6-10.6-3.7-19.8-5-28.2V1186.2c-1.6-9.6-2.3-20.5-3.4-32.2v-1l-.2-.8c-.8-4-1.1-9.2-1.5-15v-.5l-3-24.2v-.4c-.4-2.7.6-7.8-5.8-16-6.5-8.3-15-9.5-20.7-10.2l-24.7-2.9-20.8-2.7c-10.6-1.6-18.4-.9-22.6-1.5h-1.1c-3.8-.4-7.4-.5-10.9-.5zm80.1 142.3c12 133 16 41.9-38.1 23.3l-1-.3c-9.1-2-18.3-3.2-27.6-3.2-5.3 0-8.9 0-13.4-.3-57.1 36.4-59 68-39.8-24l-.1.7c1.5-6 1.8-11.1 2.2-15.2 2.7-16.4 5.7-32.2 9.7-47.9v-.1c74.6-88.5 98.8 5.5 108.1 67zm-86.5-65.8c-2.8 7.5-2.6 10.5-2.4 9.9l-.2.7-.2.8c-2.7 10.8-4.1 21-5.7 30.4-1 2.9-1.9 5.9-2.4 9-.9 5.3-.6 14.3 6 21.2 6.6 7 15 7.6 20.1 7.2l2.4-.1 1.2-.3 23.7-1.3h.5c62.7-15.2-13.5-143.4-43-77.5zm3.5 125.2h1.6c-1.5.2-2 0-1.6 0zm-60.1 50.9v.1l-.3 1 .3-1.1z" fill="#171717" transform="rotate(-1.3 4063.3 428)"/><path style="-inkscape-font-specification:&quot;Nickname DEMO&quot;;-inkscape-stroke:none" d="M366.6 1308c-.4-2.8-.4-5.6-.4-8.8-1-8.5-1.4-16.6-2.4-25-1.1-7.1-1.1-14.2-2.2-21.3-.3-5.6-1-11.6-2-17.3l-2.9-18c-1.4-9.5-3.5-18.7-5-28.2-1.7-11-2.4-22.3-3.5-33.6-1-5.6-1.4-11.6-1.7-17.3l-2.9-23.3c-1-6.7-.7-8.4-9.1-9.5l-24.8-2.8-21.2-2.8c-7.4-1.1-15.1-.4-22.6-1.5-12.3-1-23.6.4-36 1.8-5.6.4-9.1 3.2-10.6 8.5-1 2.5-1.4 3.5-1.7 6l-8.1 33.9a600.5 600.5 0 0 0-10.3 50.1c-.3 4.3-.7 8.8-1.8 13l-7.4 35.4c-1.7 8.8-3.8 17.6-5.6 27.2l-7.8 39.2c-1 4.6-1.4 9.2-2.5 13.4-.7 3.5.8 5.6 4.3 6 .7.3 1.7.3 2.8.3 8.1-1 15.5-.7 23-1.7l29.6-2.8c4.3-.4 6.7-1.8 7.8-6 1-3.2 1.4-6.4 1.8-9.6 1-7 2-14.1 2.4-21.2.4-9.5 2.1-17.6 3.2-27.2.4-4.5 1.8-5.2 6.4-4.9 5.3.4 9.5.4 14.8.4 7.4 0 15.2 1 23.3 2.8 7.4 2.5 8.1 2.8 9.5 10.2l3.2 22.3 4.6 26.1c.7 5.3 3.9 7.8 9.2 7 3.9-.3 7.4-.3 11.3-.3 3.9 0 7.7.4 12 .4 3.9 0 6.7-.4 10.6-.7 3.1-.4 6.3 0 9.5-1.1 3.9-1 4.6-1.8 4.6-5.7zm-70-102c0 3.9-1.7 6-5.2 6.3l-25.1 1.5c-.4.3-1 .3-2.1.3-3.9.4-5.7-1.4-5-5.3.4-2.5 1.1-5 2.2-7.4 1.7-10.2 3.1-20.5 5.6-30.4 1-3.2 1-6.3 2.1-9.2 1-2.8 2.9-4.2 5.7-4.2 3.2 0 6.3.4 9.5.7 2.8.4 4.6 1.8 5.3 5 1.4 5.3 2.5 10.9 3.5 16.2 1.5 8.5 2.2 17 3.2 25.4 0 .4.4.4.4.7z" transform="rotate(-1.3 4063.3 428)"/><path style="-inkscape-font-specification:&quot;Nickname DEMO&quot;;-inkscape-stroke:none" d="M433 1076.6c-1.7 0-4.2 0-7.5.5h-.5l-.5.2c-3.7.7-8.2 1.2-13.9 2.2-3 .4-7.4 1-12.4 2.8a35 35 0 0 0-21.2 23.1l-.4 2v1.4c-.2 1-.4 2-.4 3l.2-2.7c-1.2 9-1.5 16.5-1.9 24.7-.4 8.4-.4 15.6-.4 23.5l-.7 13.5c-.3 8.7-.4 15-1.2 20.7l-.2 1.4v11.2c-.3 11-.7 22.1-.7 33.7 0 8.7.4 16.4.7 24.5v-.9c0 8.7.4 17.1.7 25.3v.4l1.4 15.1v17l1.1 6.7.2.7a27 27 0 0 0 8.3 13.7c30 11.8 131.5 10.3 153.9-6.4a29 29 0 0 0 5.8-17.8c0-3 .8-9.3-1.3-17.9l.4 2.3c-1-8.2-2.2-16.3-3.7-24.9l.2 1.7a28 28 0 0 0-9.7-18.2 27 27 0 0 0-14.9-5.6c-7.5-1.2-13.5-1.3-16.9-1.9h-.5c-7.3-1.2-15.4-2.8-24.3-3.8v-1.3c-.8-6.8 0-14 .4-24.6v.2l1-21.9-.2 1.9c.6-4 .6-7.4.6-10.1l1-24.5c.5-8 .3-13.3.8-16.3l.2-1v-1c1-13.4 2.8-27.4 4.3-41.9v-.6c.3-4.6.6-12.8-6.3-20.2-6.8-7.5-14.4-7.9-18.7-8.2L437 1077h-.8l-3-.3z" fill="#171717" transform="rotate(-1.3 4063.3 428)"/><path style="-inkscape-font-specification:&quot;Nickname DEMO&quot;;-inkscape-stroke:none" d="M517 1324.3c4.2-.7 6.4-3.6 6.4-8.2 0-4.2.3-8.8-.7-13a562 562 0 0 0-3.6-24c-.3-4-2.8-5.3-6.7-5.7-6-1-12.3-1-18.4-2.1-11.6-1.8-22.9-4.2-35.3-4.6-1 0-2 0-2.4-.3-1.8-.4-2.9-1.5-3.2-3.6-.4-.7-.4-1.7-.4-3.5 0-3.9.4-7.4 0-10.6-1-9.5 0-18 .4-27.5l1-22c.4-2.4.4-4.9.4-7.7l1-25c.4-6.8 0-12.8 1.1-18.8 1-14.1 2.8-28.2 4.3-42.4.3-5.2-1.1-6.7-6.4-7l-18.4-1.4c-2.4 0-5.3-.4-7.7 0-5.3 1-10 1.4-15.2 2.4-2.8.4-5.3.8-8.1 1.8-4.6.7-7.4 3.5-8.5 8.5 0 1-.4 1-.4 2.1a251 251 0 0 0-1.7 23c-.4 8-.4 15.1-.4 23.3l-.7 13.7c-.3 8.2-.3 15.2-1.4 22.6v10c-.3 11.2-.7 22.2-.7 33.5 0 8 .4 15.5.7 23.6 0 8.1.4 16.3.7 24.4l1.4 15.5v16.3l.7 4.2c.7 2.8 2.5 4.2 5.3 4.6 39.8 2.3 78.7 5 116.9-2.1z" transform="rotate(-1.3 4063.3 428)"/><path style="-inkscape-font-specification:&quot;Nickname DEMO&quot;;-inkscape-stroke:none" d="M582 1076.6c-1.7 0-4.2 0-7.4.5h-.6l-.5.2c-3.6.7-8.1 1.2-13.8 2.2-3 .4-7.5 1-12.5 2.8a35 35 0 0 0-21.2 23.1l-.4 2v1.4c-.1 1-.4 2-.4 3l.2-2.7c-1.2 9-1.5 16.5-1.9 24.7-.4 8.4-.4 15.6-.4 23.5l-.7 13.5c-.3 8.7-.4 15-1.2 20.7l-.2 1.4v11.2c-.3 11-.7 22.1-.7 33.7 0 8.7.4 16.4.7 24.5v-.9c0 8.7.4 17.1.7 25.3v.4l1.4 15.1v17l1.1 6.7.2.7a27 27 0 0 0 8.3 13.7c4.5 3.7 9.8 5.4 14 6h2.4c41.2.4 77.7 5.5 120.3-2.3 5.8-1 12.8-4.4 17.2-10a29 29 0 0 0 5.8-17.9c0-3 .8-9.3-1.3-17.9l.4 2.3c-1-8.2-2.2-16.3-3.7-24.9l.2 1.7a28 28 0 0 0-9.7-18.2 27 27 0 0 0-14.8-5.6c-7.6-1.2-13.6-1.3-17-1.9h-.4c-7.4-1.2-15.5-2.8-24.4-3.8v-1.3c-.8-6.8 0-14 .4-24.6v.2l1-21.9-.1 1.9c.5-4 .5-7.3.5-10l1-24.8v.2c.5-8 .3-13.3.8-16.3l.2-1v-1c1-13.4 2.8-27.4 4.3-41.9v-.6c.3-4.6.6-12.8-6.3-20.2-6.8-7.5-14.4-7.9-18.7-8.2L586 1077h-.8l-3-.3z" fill="#171717" transform="rotate(-1.3 4063.3 428)"/><path style="-inkscape-font-specification:&quot;Nickname DEMO&quot;;-inkscape-stroke:none" d="M666 1324.3c4.2-.7 6.4-3.6 6.4-8.2 0-4.2.3-8.8-.7-13a562 562 0 0 0-3.6-24c-.3-4-2.8-5.3-6.7-5.7-6-1-12.3-1-18.3-2.1-11.7-1.8-23-4.2-35.4-4.6-1 0-2 0-2.4-.3-1.8-.4-2.9-1.5-3.2-3.6-.4-.7-.4-1.7-.4-3.5 0-3.9.4-7.4 0-10.6-1-9.5 0-18 .4-27.5l1-22c.4-2.4.4-4.9.4-7.7l1-25c.4-6.8 0-12.8 1.1-18.8 1-14.1 2.9-28.2 4.3-42.4.3-5.2-1-6.7-6.4-7l-18.4-1.4c-2.4 0-5.2-.4-7.7 0-5.3 1-10 1.4-15.2 2.4-2.8.4-5.3.8-8.1 1.8-4.6.7-7.4 3.5-8.5 8.5 0 1-.4 1-.4 2.1a251 251 0 0 0-1.7 23c-.4 8-.4 15.1-.4 23.3l-.7 13.7c-.3 8.2-.3 15.2-1.4 22.6v10c-.3 11.2-.7 22.2-.7 33.5 0 8 .4 15.5.7 23.6 0 8.1.4 16.3.7 24.4l1.4 15.5v16.3l.7 4.2c27 8.8 93.2 7.8 122.2 2.5z" transform="rotate(-1.3 4063.3 428)"/><path style="-inkscape-font-specification:&quot;Nickname DEMO&quot;;-inkscape-stroke:none" d="M700.7 1071.5a26 26 0 0 0-25.7 23.1l-.2 1-.1 1c-.4 4.3-.8 9-.8 14.4v11.2c-.3 4.7-1 10.3-1 17.4v-.7c-.4 9.6-.7 19.8-.7 30.1-.2 1-.4 2.2-.4 3 0 6-.3 11.3-.7 18.1v15.6c-.3 7-1.4 14.9-1.4 24.6 0 9.3.7 17 1 24.6v-.9c0 4.6 1.6 11.4 6.3 16.8a27.9 27.9 0 0 0-6.5 12.4v.4c-.3 1.3-1.2 2.7-1.2 8.2v-.8c0 2.3 0 4.9-.2 7.3-.6 2.4-1 17.1-.8 21l.7 13.1v.4c.5 4.7 2.2 11.4 7.5 16.6 5.3 5.3 12 7 16.7 7.5h1.8c2 0 3.7.7 8.3-.4 7.1-.3 13.9-.7 21.6-1.7h12.4c6.7 0 15.9-1.2 22.9-8.8 7-7.6 7.3-16.5 7-22v1-13.5c.3-5.5 1-11.7 1-18.9.5-6.1-1.3-14.4-6.5-20.2l-.6-.5c5-4.3 8.7-10 9.4-15.6 1.2-6.4 1.6-12.3 2-17.4l2.6-19.1v.6c1.5-8.8 2.7-18.4 2.7-28.5v1l1.4-26.1.7-11.4h.7v-20c0-11.4-.3-22.2-.7-33.2v.7a29 29 0 0 0-6.7-18.7 29 29 0 0 0-17.3-9.2l.9.1c-1.3-.2-5.2-1-9.6-1h.7l-20.4-.7c-8-.4-14.3-.7-21.5-1.7H704.7c-1.2-.2-2.5-.2-4-.2zm39.6 63.9c0 5 .2 7.4 0 9v1.9c-45.4 233.2 0-81.9 0-11zm-10.4 126.5h.9-.8zm-37 .9-1 .1-1.4.3zm51.7.7 2.2.5h-.4l-1.8-.5z" fill="#171717" transform="rotate(-1.3 4063.3 428)"/><path style="-inkscape-font-specification:&quot;Nickname DEMO&quot;;-inkscape-stroke:none" d="M760.6 1135.4c0-11-.3-21.6-.7-32.5 0-4.6-2.4-7.4-7-8.1-1.8-.4-3.2-.7-5.7-.7l-20.5-.8c-8-.3-15.1-.7-23.3-1.7-5.6-.4-7.7 1-8.8 6.7-.3 4.2-.7 8.5-.7 12.7v12c-.4 5.7-1 11-1 16.6-.4 9.9-.8 20.1-.8 30.4 0 1-.3 1-.3 2 0 6.8-.4 12.4-.7 19.2v15.1c-.4 8.2-1.4 16-1.4 24 0 8.2.7 15.6 1 23.7 0 3.5 1.8 5.3 5.7 5.3h18c5.3 0 10.6 0 15.9-.4 5.3 0 10.2 0 15.5-.3a5.3 5.3 0 0 0 5-5c1-5.6 1.4-11.2 1.7-16.9l2.8-19.8c1.5-8 2.5-16.6 2.5-25l1.4-26.2c.4-6.7 1-12.7 1-19.4.4-3.9 0-7 0-11zm-72.3 182.9.7 12.7c.3 3.9 2 5.6 6 6 2.4 0 4.2 0 5.3-.4a251 251 0 0 0 23-1.7c1-.4 1.7 0 2.7 0h11.3c8.2 0 10.3-3.2 10-10v-14c.3-6.8 1-13.1 1-19.8.3-4.6-2.1-7-6.7-7.8-4-1-7.8-1.4-11.7-1.4-8.5-.4-17.3-.4-25.8-.4-3.1 0-6 .4-8.8 1.1-2.8.4-4.6 1.8-5.3 5-.3 1.7-.7 3.1-.7 4.2-.3 8.8-.7 17.6-.7 26.5z" transform="rotate(-1.3 4063.3 428)"/></g><ellipse cx="390.6" cy="89.1" rx="390.5" ry="392.6" fill="#1f1f1f" fill-opacity="1" fill-rule="evenodd" stroke="#171717" stroke-width="0" stroke-linecap="round" stroke-opacity="1" paint-order="stroke fill markers" transform="matrix(.89931 0 0 .89931 54 273)" display="inline"/><g transform="translate(12.2 207.3)"><g stroke-width="2" fill="none" stroke-linecap="butt"><path stroke="#eca8a8" vector-effect="non-scaling-stroke" d="M259 0q15 29 26.3 59.5" transform="matrix(1.29927 0 0 1.29927 59.1 -187.9)"/><path stroke="#eb9f9f" vector-effect="non-scaling-stroke" d="M285.3 59.5q16 46.8 23 95.7" transform="matrix(1.29927 0 0 1.29927 59.1 -187.9)"/><path stroke="#f9f9f9" vector-effect="non-scaling-stroke" d="M308.3 155.2q-21.7 2.8-32.8 21.3" transform="matrix(1.29927 0 0 1.29927 59.1 -187.9)"/><path stroke="#b0d1e9" vector-effect="non-scaling-stroke" d="m275.5 176.5-20.8-8" transform="matrix(1.29927 0 0 1.29927 59.1 -187.9)"/><path stroke="#b7d5eb" vector-effect="non-scaling-stroke" d="M254.8 168.5q-32.6-12-66.8-17.7" transform="matrix(1.29927 0 0 1.29927 59.1 -187.9)"/><path stroke="#c4dcee" vector-effect="non-scaling-stroke" d="M188 150.8q-60.9-10.5-122.3-3.3" transform="matrix(1.29927 0 0 1.29927 59.1 -187.9)"/><path stroke="#b7d5eb" vector-effect="non-scaling-stroke" d="M65.8 147.5q-22.6 2.3-44.8 7" transform="matrix(1.29927 0 0 1.29927 59.1 -187.9)"/><path stroke="#e45454" vector-effect="non-scaling-stroke" d="m287.3 1.8-.7 1.3a1.3.3-59.7 0 0-.3.9q2 24.6-.5 53-.2 2-.6 2.5" transform="matrix(1.29927 0 0 1.29927 59.1 -187.9)"/><path stroke="#e69b9b" vector-effect="non-scaling-stroke" d="m440.5 78.7-2 2" transform="matrix(1.29927 0 0 1.29927 59.1 -187.9)"/><path stroke="#ea9f9f" vector-effect="non-scaling-stroke" d="M438.5 80.7q-26.3 26.2-53 48.2-20.7 17-46.8 36.8" transform="matrix(1.29927 0 0 1.29927 59.1 -187.9)"/><path stroke="#f1a5a5" vector-effect="non-scaling-stroke" d="M338.8 165.7q-13.2-11-30.6-10.5" transform="matrix(1.29927 0 0 1.29927 59.1 -187.9)"/><path stroke="#f0de93" vector-effect="non-scaling-stroke" d="M511.7 270h-.4a.9.8 66.1 0 1-.6-.3q-27.4-27.5-61.4-46.4" transform="matrix(1.29927 0 0 1.29927 59.1 -187.9)"/><path stroke="#f5e193" vector-effect="non-scaling-stroke" d="m449.3 223.3-1.5-1" transform="matrix(1.29927 0 0 1.29927 59.1 -187.9)"/><path stroke="#eee" vector-effect="non-scaling-stroke" d="M447.8 222.3q1.4-1.8 2-5.3 8.6-55.1-3.2-107.8-2.8-12.3-6.3-24.5-.7-2.2-1.8-4" transform="matrix(1.29927 0 0 1.29927 59.1 -187.9)"/><path stroke="#f9e597" vector-effect="non-scaling-stroke" d="M447.8 222.3q-45-24.5-96-28.6" transform="matrix(1.29927 0 0 1.29927 59.1 -187.9)"/><path stroke="#f9f9f9" vector-effect="non-scaling-stroke" d="M351.8 193.8q-1.7-16.4-13-28" transform="matrix(1.29927 0 0 1.29927 59.1 -187.9)"/><path stroke="#88bee5" vector-effect="non-scaling-stroke" d="M188 150.8q-14.9 37-46.5 61.4-9.3 7.2-20 11.7-10.3 4.4-19.8 4.8-19.3 1-30.2-12.6-5.3-6.5-8-16.3-2.7-9-2.5-18.3.3-16.3 5.5-32.8.3-.9-.8-1.2" transform="matrix(1.29927 0 0 1.29927 59.1 -187.9)"/><path stroke="#74b3e1" vector-effect="non-scaling-stroke" d="M254.8 168.5q-15.3 34.2-37 64.8-.4.4-.9 1.6-.3.8-1 1.5l-1.6 1.9q-12 16.5-26.6 33l-1 1-14.7 15.4q-6.5 6.5-13.4 12.4l-3.7 3.3q-1.8 1.7-3.8 3.1l-2.5 2.2q-1.3 1.2-2.6 2.1l-3.7 2.6q-20.4 16-43.3 28.3l-4.1 2-4.2 2q-3.6 2-6.2 3.1l-9.3 3.8q-5.5 2.3-9.4 3.6-17.4 6-31.3 8.3-6.4 1-9.3 2.5" transform="matrix(1.29927 0 0 1.29927 59.1 -187.9)"/><path stroke="#ffec9d" vector-effect="non-scaling-stroke" d="M351.8 193.8q-.7 28.1-26 39.3l-.7.2q-.7.2-.9 1" transform="matrix(1.29927 0 0 1.29927 59.1 -187.9)"/><path stroke="#f9f9f9" vector-effect="non-scaling-stroke" d="m324.2 234.3-.2-.1a.2.1 59.5 0 0-.2-.2q-17 4.5-32.8-3.3" transform="matrix(1.29927 0 0 1.29927 59.1 -187.9)"/><path stroke="#b6d7ef" vector-effect="non-scaling-stroke" d="M291 230.7q0-.5-1-1-12.5-8-17-21.6-2.4-7.7-1.7-15.9.7-8.1 4.2-15.7" transform="matrix(1.29927 0 0 1.29927 59.1 -187.9)"/><path stroke="#e5ebf0" vector-effect="non-scaling-stroke" d="M337.4 195.5a26.1 26.1 0 0 0-26-26.1 26.1 26.1 0 0 0-26.2 26.1 26.1 26.1 0 0 0 26.1 26.2 26.1 26.1 0 0 0 26.1-26.2" transform="matrix(1.29927 0 0 1.29927 59.1 -187.9)"/><path stroke="#b0d1e9" vector-effect="non-scaling-stroke" d="M291 230.7q-.7.7-1.8 2.5-18.6 30.4-41.4 62.1-37.8 52.5-83.7 98-27 26.6-60.4 51.7" transform="matrix(1.29927 0 0 1.29927 59.1 -187.9)"/><path stroke="#accde5" vector-effect="non-scaling-stroke" d="m103.7 445-11.2 8" transform="matrix(1.29927 0 0 1.29927 59.1 -187.9)"/><path stroke="#fbd53b" vector-effect="non-scaling-stroke" d="M449.3 223.3q-1 1.4-1 2-6.7 34.3-22.6 67.1-6.6 13.7-13.4 24.8l-5.1 9q-3 5.1-6.7 9.3-2.6 3-4 5.8a1.9 1.3-10.5 0 1-.7.7q-.8.5-1.5 1.5-3.4 4.7-7.7 9.7l-8.1 9.2q-7.5 8.5-16.1 15.9-.2 0-2.5 2.7-1.3 1.6-3.6 2" transform="matrix(1.29927 0 0 1.29927 59.1 -187.9)"/><path stroke="#f9e597" vector-effect="non-scaling-stroke" d="M356.3 383q-10-75.7-32-148.8" transform="matrix(1.29927 0 0 1.29927 59.1 -187.9)"/><path stroke="#f0de93" vector-effect="non-scaling-stroke" d="M361.3 489.5q1.5-52.5-5-104.5" transform="matrix(1.29927 0 0 1.29927 59.1 -187.9)"/><path stroke="#f4e297" vector-effect="non-scaling-stroke" d="M356.3 385v-2" transform="matrix(1.29927 0 0 1.29927 59.1 -187.9)"/><path stroke="#eee" vector-effect="non-scaling-stroke" d="M356.3 385q0 .5-1.2.7a1.9 1.8 19.9 0 0-1 .4q-38.8 32.9-85.8 50.2-49.5 18.1-101.9 17.1-10.5-.2-20-1-19.6-1.4-39.7-6.2l-1.8-.2q-1 0-1.2-1" transform="matrix(1.29927 0 0 1.29927 59.1 -187.9)"/></g><path fill="#f3f3f3" d="M383.4-187.9h12.3q19.5 37.6 34 77.4 20.8 60.7 30 124.3-28.2 3.6-42.7 27.7L390.1 31q-42.3-15.5-86.7-23-79.1-13.6-158.9-4.3-29.3 3-58.2 9.2 38-86.6 114-140.1 81.4-57.4 183-60.7z" stroke-width="1.3"/><path fill="#e55d5d" d="M395.7-188.7H407l25.2 2.3-.8 1.7a.4 1.7 30.3 0 0-.4 1.2q2.7 32-.7 68.9-.3 2.6-.7 3.3-14.5-39.8-34-77.4z" stroke-width="1.3"/><path fill="#e24b4b" d="M432.3-185.5q114.7 15 196.5 96.8 2 2 2.6 3.1l-2.6 2.6Q594.7-49 560-20.3q-26.9 22-60.7 47.7-17-14.2-39.6-13.6-9-63.6-29.9-124.3.4-.7.7-3.3 3.4-36.9.7-68.9a.4 1.7 30.3 0 1 .4-1.1z" stroke-width="1.3"/><path fill="#eaeaea" d="M631.4-85.6q88.5 93.4 93 223.3V152l-.4 11h-.5a1.2 1 66.1 0 1-.8-.4q-35.6-35.9-79.8-60.4l-2-1.3q1.8-2.3 2.6-6.8 11.3-71.6-4.1-140-3.7-16.1-8.3-32-.8-2.7-2.3-5.1z" stroke-width="1.3"/><path fill="#f2f2f2" d="M628.8-83q1.5 2.4 2.3 5.2 4.6 15.8 8.3 31.9 15.4 68.4 4 140-.7 4.5-2.5 6.8-58.4-31.7-124.7-37-2.2-21.3-17-36.5Q533 1.8 560-20.3q34.8-28.7 69-62.7z" stroke-width="1.3"/><path fill="#95c5e8" d="M303.4 8Q284 56.3 243 88q-12 9.3-26 15.2-13.4 5.6-25.7 6.2-25.1 1.3-39.3-16.3-6.9-8.6-10.5-21.2-3.4-11.7-3.1-23.9.4-21.1 7.1-42.5.4-1.2-1-1.7Q224.3-5.6 303.4 8z" stroke-width="1.3"/><path fill="#7bb7e2" d="M144.5 3.7q1.4.5 1 1.7-6.7 21.4-7.1 42.5-.3 12.2 3 23.9Q145.2 84.4 152 93q14.2 17.6 39.3 16.3 12.3-.6 25.6-6.2 14-6 26-15.2Q284 56.3 303.5 8q44.4 7.5 86.7 23-19.9 44.5-48 84.2-.5.6-1.1 2-.5 1.2-1.3 2l-2.2 2.5q-15.6 21.5-34.6 42.8l-1.2 1.4q-9.8 10.4-19.2 20-8.3 8.5-17.4 16.2l-4.7 4.2q-2.3 2.2-5 4.1-1.5 1.1-3.3 2.8-1.6 1.5-3.4 2.8l-4.7 3.4Q217.4 240 187.8 256l-5.4 2.7-5.4 2.7q-4.7 2.5-8 4l-12.2 4.9q-7 3-12.2 4.7-22.6 7.8-40.7 10.7-8.3 1.4-12 3.3-29.7-61.7-32.8-130.4v-29.2q3-60.8 27.2-116.5 28.9-6.2 58.2-9.2Z" stroke-width="1.3"/><path fill="#fff" d="M459.6 13.8q22.5-.6 39.6 13.6 14.8 15.2 17 36.5-1 36.6-33.7 51l-1 .4q-1 .2-1.2 1.2l-.2-.1a.3.2 59.5 0 0-.2-.2q-22.2 5.8-42.7-4.3-.1-.6-1.2-1.3-16.3-10.3-22.1-28.1-3.3-10-2.3-20.6.9-10.6 5.4-20.4 14.5-24 42.6-27.7zm38 52.4a34 34 0 0 0-34-34 34 34 0 0 0-34 34 34 34 0 0 0 34 34 34 34 0 0 0 34-34z" stroke-width="1.3"/><path fill="#6dafdf" d="M390.1 31 417 41.5q-4.5 9.8-5.4 20.4-1 10.6 2.3 20.6 5.8 17.8 22 28 1.2.8 1.3 1.4-1 1-2.4 3.2-24 39.5-53.7 80.7Q332 264 272.3 323.1q-35 34.6-78.4 67.2l-14.6 10.3Q123.4 354.4 91.9 289q3.7-2 12-3.3 18.1-3 40.7-10.7 5.1-1.8 12.2-4.7l12.1-5q3.4-1.4 8.1-4l5.4-2.6 5.4-2.7q29.6-15.9 56.2-36.6l4.7-3.4q1.8-1.3 3.4-2.8 1.8-1.7 3.4-2.8 2.6-1.9 4.9-4l4.7-4.3q9.1-7.7 17.4-16.2 9.4-9.6 19.2-20l1.2-1.4q19-21.3 34.6-42.8l2.2-2.4q.8-1 1.3-2 .6-1.5 1-2.1 28.2-39.7 48.1-84.2z" stroke-width="1.3"/><circle fill="#cbd6e0" cx="463.6" cy="66.2" r="34" stroke-width="1.3"/><path fill="#ffd83b" d="M516.2 63.9q66.3 5.3 124.7 37l2 1.3q-1.3 1.9-1.4 2.6-8.7 44.7-29.3 87.3-8.6 17.8-17.4 32.2l-6.6 11.5q-3.9 6.8-8.7 12.2-3.4 3.8-5.3 7.6a1.7 2.5 79.5 0 1-.8.9q-1.1.6-2 2-4.4 6-10 12.5L551 283q-9.8 11-21 20.6l-3.1 3.5q-1.8 2.1-4.8 2.7-13-98.4-41.7-193.3.3-1 1.2-1.2l1-.3q32.7-14.5 33.7-51.1z" stroke-width="1.3"/><path fill="#f6d13b" d="M642.9 102.2q44.2 24.5 79.8 60.4a1.2 1 66.1 0 0 .8.3h.5q-3.7 69-34 129.4-53.2 106-161.5 155.8 2-68.1-6.5-135.7v-2.6q3-.6 4.8-2.7l3.1-3.5q11.2-9.6 21-20.6l10.5-12q5.6-6.4 10-12.6.9-1.3 2-2a1.7 2.5 79.5 0 0 .8-.8q1.9-3.8 5.3-7.6 4.8-5.4 8.7-12.2l6.6-11.5q8.8-14.4 17.4-32.2 20.6-42.6 29.3-87.3.1-.7 1.4-2.6z" stroke-width="1.3"/><path fill="#f2f2f2" d="M437.2 111.9q20.5 10.1 42.7 4.3a.3.2 59.5 0 1 .2.2h.2q28.8 95 41.7 193.4v2.6q0 .5-1.6.8a2.4 2.4 19.9 0 0-1.1.5q-50.5 42.8-111.7 65.3-64.2 23.5-132.2 22.3-13.8-.3-26-1.3-25.6-2-51.7-8.1-1.1-.3-2.3-.3-1.4 0-1.5-1.3 43.4-32.6 78.4-67.2 59.7-59 108.8-127.3 29.6-41.2 53.7-80.7 1.4-2.3 2.4-3.2z" stroke-width="1.3"/><path fill="#eaeaea" d="M522 312.4q8.5 67.6 6.5 135.7-61.9 27.5-129.7 29.3h-14.6q-115.9-4-205-76.8l14.7-10.3q.1 1.3 1.5 1.3 1.2 0 2.3.3 26.1 6.1 51.7 8.1 12.2 1 26 1.3 68 1.2 132.2-22.3 61.2-22.5 111.7-65.3a2.4 2.4 19.9 0 1 1.1-.5q1.7-.3 1.6-.8z" stroke-width="1.3"/></g></svg>