<?xml version="1.0" encoding="UTF-8" standalone="no"?>
<svg
   version="1.1"
   viewBox="0 0 712.97297 712.97296"
   id="svg108"
   sodipodi:docname="beachy_beachy_ball_only_with_stoke.svg"
   width="712.97296"
   height="712.97296"
   inkscape:version="1.2.2 (1:1.2.2+202212051552+b0a8486541)"
   xmlns:inkscape="http://www.inkscape.org/namespaces/inkscape"
   xmlns:sodipodi="http://sodipodi.sourceforge.net/DTD/sodipodi-0.dtd"
   xmlns="http://www.w3.org/2000/svg"
   xmlns:svg="http://www.w3.org/2000/svg">
  <defs
     id="defs112" />
  <sodipodi:namedview
     id="namedview110"
     pagecolor="#ffffff"
     bordercolor="#000000"
     borderopacity="0.25"
     inkscape:showpageshadow="2"
     inkscape:pageopacity="0.0"
     inkscape:pagecheckerboard="0"
     inkscape:deskcolor="#d1d1d1"
     showgrid="false"
     inkscape:zoom="0.76813762"
     inkscape:cx="357.35784"
     inkscape:cy="668.5"
     inkscape:window-width="2560"
     inkscape:window-height="1380"
     inkscape:window-x="0"
     inkscape:window-y="28"
     inkscape:window-maximized="1"
     inkscape:current-layer="svg108" />
  <text
     xml:space="preserve"
     style="-inkscape-font-specification:'Nickname DEMO'"
     x="154.70454"
     y="885.92487"
     font-size="240px"
     font-family="'Nickname DEMO'"
     fill="none"
     fill-rule="evenodd"
     stroke-width="0"
     stroke-linecap="round"
     paint-order="stroke fill markers"
     id="text2" />
  <circle
     cx="356.48648"
     cy="356.48648"
     r="356.48648"
     fill="#ffffff"
     fill-opacity="1"
     fill-rule="evenodd"
     stroke-width="0"
     stroke-linecap="round"
     paint-order="stroke fill markers"
     display="inline"
     id="circle16" />
  <g
     transform="translate(-34.795456,188.72486)"
     id="g106">
    <g
       stroke-width="2"
       fill="none"
       stroke-linecap="butt"
       id="g76">
      <path
         stroke="#eca8a8"
         vector-effect="non-scaling-stroke"
         d="m 259,0 q 15,29 26.3,59.5"
         transform="matrix(1.29927,0,0,1.29927,59.1,-165.9)"
         id="path18" />
      <path
         stroke="#eb9f9f"
         vector-effect="non-scaling-stroke"
         d="m 285.3,59.5 q 16,46.8 23,95.7"
         transform="matrix(1.29927,0,0,1.29927,59.1,-165.9)"
         id="path20" />
      <path
         stroke="#f9f9f9"
         vector-effect="non-scaling-stroke"
         d="m 308.3,155.2 q -21.7,2.8 -32.8,21.3"
         transform="matrix(1.29927,0,0,1.29927,59.1,-165.9)"
         id="path22" />
      <path
         stroke="#b0d1e9"
         vector-effect="non-scaling-stroke"
         d="m 275.5,176.5 -20.8,-8"
         transform="matrix(1.29927,0,0,1.29927,59.1,-165.9)"
         id="path24" />
      <path
         stroke="#b7d5eb"
         vector-effect="non-scaling-stroke"
         d="M 254.8,168.5 Q 222.2,156.5 188,150.8"
         transform="matrix(1.29927,0,0,1.29927,59.1,-165.9)"
         id="path26" />
      <path
         stroke="#c4dcee"
         vector-effect="non-scaling-stroke"
         d="M 188,150.8 Q 127.1,140.3 65.7,147.5"
         transform="matrix(1.29927,0,0,1.29927,59.1,-165.9)"
         id="path28" />
      <path
         stroke="#b7d5eb"
         vector-effect="non-scaling-stroke"
         d="m 65.8,147.5 q -22.6,2.3 -44.8,7"
         transform="matrix(1.29927,0,0,1.29927,59.1,-165.9)"
         id="path30" />
      <path
         stroke="#e45454"
         vector-effect="non-scaling-stroke"
         d="m 287.3,1.8 -0.7,1.3 A 1.3,0.3 -59.7 0 0 286.3,4 q 2,24.6 -0.5,53 -0.2,2 -0.6,2.5"
         transform="matrix(1.29927,0,0,1.29927,59.1,-165.9)"
         id="path32" />
      <path
         stroke="#e69b9b"
         vector-effect="non-scaling-stroke"
         d="m 440.5,78.7 -2,2"
         transform="matrix(1.29927,0,0,1.29927,59.1,-165.9)"
         id="path34" />
      <path
         stroke="#ea9f9f"
         vector-effect="non-scaling-stroke"
         d="m 438.5,80.7 q -26.3,26.2 -53,48.2 -20.7,17 -46.8,36.8"
         transform="matrix(1.29927,0,0,1.29927,59.1,-165.9)"
         id="path36" />
      <path
         stroke="#f1a5a5"
         vector-effect="non-scaling-stroke"
         d="m 338.8,165.7 q -13.2,-11 -30.6,-10.5"
         transform="matrix(1.29927,0,0,1.29927,59.1,-165.9)"
         id="path38" />
      <path
         stroke="#f0de93"
         vector-effect="non-scaling-stroke"
         d="m 511.7,270 h -0.4 a 0.9,0.8 66.1 0 1 -0.6,-0.3 q -27.4,-27.5 -61.4,-46.4"
         transform="matrix(1.29927,0,0,1.29927,59.1,-165.9)"
         id="path40" />
      <path
         stroke="#f5e193"
         vector-effect="non-scaling-stroke"
         d="m 449.3,223.3 -1.5,-1"
         transform="matrix(1.29927,0,0,1.29927,59.1,-165.9)"
         id="path42" />
      <path
         stroke="#eeeeee"
         vector-effect="non-scaling-stroke"
         d="m 447.8,222.3 q 1.4,-1.8 2,-5.3 8.6,-55.1 -3.2,-107.8 -2.8,-12.3 -6.3,-24.5 -0.7,-2.2 -1.8,-4"
         transform="matrix(1.29927,0,0,1.29927,59.1,-165.9)"
         id="path44" />
      <path
         stroke="#f9e597"
         vector-effect="non-scaling-stroke"
         d="m 447.8,222.3 q -45,-24.5 -96,-28.6"
         transform="matrix(1.29927,0,0,1.29927,59.1,-165.9)"
         id="path46" />
      <path
         stroke="#f9f9f9"
         vector-effect="non-scaling-stroke"
         d="m 351.8,193.8 q -1.7,-16.4 -13,-28"
         transform="matrix(1.29927,0,0,1.29927,59.1,-165.9)"
         id="path48" />
      <path
         stroke="#88bee5"
         vector-effect="non-scaling-stroke"
         d="m 188,150.8 q -14.9,37 -46.5,61.4 -9.3,7.2 -20,11.7 -10.3,4.4 -19.8,4.8 -19.3,1 -30.2,-12.6 -5.3,-6.5 -8,-16.3 -2.7,-9 -2.5,-18.3 0.3,-16.3 5.5,-32.8 0.3,-0.9 -0.8,-1.2"
         transform="matrix(1.29927,0,0,1.29927,59.1,-165.9)"
         id="path50" />
      <path
         stroke="#74b3e1"
         vector-effect="non-scaling-stroke"
         d="m 254.8,168.5 q -15.3,34.2 -37,64.8 -0.4,0.4 -0.9,1.6 -0.3,0.8 -1,1.5 l -1.6,1.9 q -12,16.5 -26.6,33 l -1,1 -14.7,15.4 q -6.5,6.5 -13.4,12.4 l -3.7,3.3 q -1.8,1.7 -3.8,3.1 l -2.5,2.2 q -1.3,1.2 -2.6,2.1 l -3.7,2.6 q -20.4,16 -43.3,28.3 l -4.1,2 -4.2,2 q -3.6,2 -6.2,3.1 l -9.3,3.8 q -5.5,2.3 -9.4,3.6 -17.4,6 -31.3,8.3 -6.4,1 -9.3,2.5"
         transform="matrix(1.29927,0,0,1.29927,59.1,-165.9)"
         id="path52" />
      <path
         stroke="#ffec9d"
         vector-effect="non-scaling-stroke"
         d="m 351.8,193.8 q -0.7,28.1 -26,39.3 l -0.7,0.2 q -0.7,0.2 -0.9,1"
         transform="matrix(1.29927,0,0,1.29927,59.1,-165.9)"
         id="path54" />
      <path
         stroke="#f9f9f9"
         vector-effect="non-scaling-stroke"
         d="m 324.2,234.3 -0.2,-0.1 a 0.2,0.1 59.5 0 0 -0.2,-0.2 q -17,4.5 -32.8,-3.3"
         transform="matrix(1.29927,0,0,1.29927,59.1,-165.9)"
         id="path56" />
      <path
         stroke="#b6d7ef"
         vector-effect="non-scaling-stroke"
         d="m 291,230.7 q 0,-0.5 -1,-1 -12.5,-8 -17,-21.6 -2.4,-7.7 -1.7,-15.9 0.7,-8.1 4.2,-15.7"
         transform="matrix(1.29927,0,0,1.29927,59.1,-165.9)"
         id="path58" />
      <path
         stroke="#e5ebf0"
         vector-effect="non-scaling-stroke"
         d="m 337.4,195.5 a 26.1,26.1 0 0 0 -26,-26.1 26.1,26.1 0 0 0 -26.2,26.1 26.1,26.1 0 0 0 26.1,26.2 26.1,26.1 0 0 0 26.1,-26.2"
         transform="matrix(1.29927,0,0,1.29927,59.1,-165.9)"
         id="path60" />
      <path
         stroke="#b0d1e9"
         vector-effect="non-scaling-stroke"
         d="m 291,230.7 q -0.7,0.7 -1.8,2.5 -18.6,30.4 -41.4,62.1 -37.8,52.5 -83.7,98 -27,26.6 -60.4,51.7"
         transform="matrix(1.29927,0,0,1.29927,59.1,-165.9)"
         id="path62" />
      <path
         stroke="#accde5"
         vector-effect="non-scaling-stroke"
         d="m 103.7,445 -11.2,8"
         transform="matrix(1.29927,0,0,1.29927,59.1,-165.9)"
         id="path64" />
      <path
         stroke="#fbd53b"
         vector-effect="non-scaling-stroke"
         d="m 449.3,223.3 q -1,1.4 -1,2 -6.7,34.3 -22.6,67.1 -6.6,13.7 -13.4,24.8 l -5.1,9 q -3,5.1 -6.7,9.3 -2.6,3 -4,5.8 a 1.9,1.3 -10.5 0 1 -0.7,0.7 q -0.8,0.5 -1.5,1.5 -3.4,4.7 -7.7,9.7 l -8.1,9.2 q -7.5,8.5 -16.1,15.9 -0.2,0 -2.5,2.7 -1.3,1.6 -3.6,2"
         transform="matrix(1.29927,0,0,1.29927,59.1,-165.9)"
         id="path66" />
      <path
         stroke="#f9e597"
         vector-effect="non-scaling-stroke"
         d="m 356.3,383 q -10,-75.7 -32,-148.8"
         transform="matrix(1.29927,0,0,1.29927,59.1,-165.9)"
         id="path68" />
      <path
         stroke="#f0de93"
         vector-effect="non-scaling-stroke"
         d="M 361.3,489.5 Q 362.8,437 356.3,385"
         transform="matrix(1.29927,0,0,1.29927,59.1,-165.9)"
         id="path70" />
      <path
         stroke="#f4e297"
         vector-effect="non-scaling-stroke"
         d="m 356.3,385 v -2"
         transform="matrix(1.29927,0,0,1.29927,59.1,-165.9)"
         id="path72" />
      <path
         stroke="#eeeeee"
         vector-effect="non-scaling-stroke"
         d="m 356.3,385 q 0,0.5 -1.2,0.7 a 1.9,1.8 19.9 0 0 -1,0.4 q -38.8,32.9 -85.8,50.2 -49.5,18.1 -101.9,17.1 -10.5,-0.2 -20,-1 -19.6,-1.4 -39.7,-6.2 l -1.8,-0.2 q -1,0 -1.2,-1"
         transform="matrix(1.29927,0,0,1.29927,59.1,-165.9)"
         id="path74" />
    </g>
    <path
       fill="#f3f3f3"
       d="m 383.4,-165.9 h 12.3 q 19.5,37.6 34,77.4 20.8,60.7 30,124.3 -28.2,3.6 -42.7,27.7 L 390.1,53 Q 347.8,37.5 303.4,30 224.3,16.4 144.5,25.7 q -29.3,3 -58.2,9.2 38,-86.6 114,-140.1 81.4,-57.4 183,-60.7 z"
       stroke-width="1.3"
       id="path78" />
    <path
       fill="#e55d5d"
       d="M 395.7,-165.9 H 407 l 25.2,2.4 -0.8,1.7 a 0.4,1.7 30.3 0 0 -0.4,1.1 q 2.7,32 -0.7,68.9 -0.3,2.6 -0.7,3.3 -14.5,-39.8 -34,-77.4 z"
       stroke-width="1.3"
       id="path80" />
    <path
       fill="#e24b4b"
       d="m 432.3,-163.5 q 114.7,15 196.5,96.8 2,2 2.6,3.1 l -2.6,2.6 q -34.1,34 -68.8,62.7 -26.9,22 -60.7,47.7 -17,-14.2 -39.6,-13.6 -9,-63.6 -29.9,-124.3 0.4,-0.7 0.7,-3.3 3.4,-36.9 0.7,-68.9 a 0.4,1.7 30.3 0 1 0.4,-1.1 z"
       stroke-width="1.3"
       id="path82" />
    <path
       fill="#eaeaea"
       d="m 631.4,-63.6 q 88.5,93.4 93,223.3 V 174 l -0.4,11 h -0.5 a 1.2,1 66.1 0 1 -0.8,-0.4 q -35.6,-35.9 -79.8,-60.4 l -2,-1.3 q 1.8,-2.3 2.6,-6.8 11.3,-71.6 -4.1,-140 -3.7,-16.1 -8.3,-32 -0.8,-2.7 -2.3,-5.1 z"
       stroke-width="1.3"
       id="path84" />
    <path
       fill="#f2f2f2"
       d="m 628.8,-61 q 1.5,2.4 2.3,5.2 4.6,15.8 8.3,31.9 15.4,68.4 4,140 -0.7,4.5 -2.5,6.8 Q 582.5,91.2 516.2,85.9 514,64.6 499.2,49.4 533,23.8 560,1.7 594.8,-27 629,-61 Z"
       stroke-width="1.3"
       id="path86" />
    <path
       fill="#95c5e8"
       d="M 303.4,30 Q 284,78.3 243,110 q -12,9.3 -26,15.2 -13.4,5.6 -25.7,6.2 -25.1,1.3 -39.3,-16.3 -6.9,-8.6 -10.5,-21.2 -3.4,-11.7 -3.1,-23.9 0.4,-21.1 7.1,-42.5 0.4,-1.2 -1,-1.7 79.8,-9.3 158.9,4.3 z"
       stroke-width="1.3"
       id="path88" />
    <path
       fill="#7bb7e2"
       d="m 144.5,25.7 q 1.4,0.5 1,1.7 -6.7,21.4 -7.1,42.5 -0.3,12.2 3,23.9 3.7,12.6 10.6,21.2 14.2,17.6 39.3,16.3 12.3,-0.6 25.6,-6.2 14,-6 26,-15.2 41.1,-31.6 60.6,-79.9 44.4,7.5 86.7,23 -19.9,44.5 -48,84.2 -0.5,0.6 -1.1,2 -0.5,1.2 -1.3,2 l -2.2,2.5 Q 322,165.2 303,186.5 l -1.2,1.4 q -9.8,10.4 -19.2,20 -8.3,8.5 -17.4,16.2 l -4.7,4.2 q -2.3,2.2 -5,4.1 -1.5,1.1 -3.3,2.8 -1.6,1.5 -3.4,2.8 l -4.7,3.4 Q 217.4,262 187.8,278 l -5.4,2.7 -5.4,2.7 q -4.7,2.5 -8,4 l -12.2,4.9 q -7,3 -12.2,4.7 -22.6,7.8 -40.7,10.7 -8.3,1.4 -12,3.3 Q 62.2,249.3 59.1,180.6 v -29.2 q 3,-60.8 27.2,-116.5 28.9,-6.2 58.2,-9.2 z"
       stroke-width="1.3"
       id="path90" />
    <path
       fill="#ffffff"
       d="m 459.6,35.8 q 22.5,-0.6 39.6,13.6 14.8,15.2 17,36.5 -1,36.6 -33.7,51 l -1,0.4 q -1,0.2 -1.2,1.2 l -0.2,-0.1 a 0.3,0.2 59.5 0 0 -0.2,-0.2 q -22.2,5.8 -42.7,-4.3 -0.1,-0.6 -1.2,-1.3 -16.3,-10.3 -22.1,-28.1 -3.3,-10 -2.3,-20.6 0.9,-10.6 5.4,-20.4 14.5,-24 42.6,-27.7 z m 38,52.4 a 34,34 0 0 0 -34,-34 34,34 0 0 0 -34,34 34,34 0 0 0 34,34 34,34 0 0 0 34,-34 z"
       stroke-width="1.3"
       id="path92" />
    <path
       fill="#6dafdf"
       d="M 390.1,53 417,63.5 q -4.5,9.8 -5.4,20.4 -1,10.6 2.3,20.6 5.8,17.8 22,28 1.2,0.8 1.3,1.4 -1,1 -2.4,3.2 -24,39.5 -53.7,80.7 -49.1,68.2 -108.8,127.3 -35,34.6 -78.4,67.2 l -14.6,10.3 Q 123.4,376.4 91.9,311 q 3.7,-2 12,-3.3 18.1,-3 40.7,-10.7 5.1,-1.8 12.2,-4.7 l 12.1,-5 q 3.4,-1.4 8.1,-4 l 5.4,-2.6 5.4,-2.7 q 29.6,-15.9 56.2,-36.6 l 4.7,-3.4 q 1.8,-1.3 3.4,-2.8 1.8,-1.7 3.4,-2.8 2.6,-1.9 4.9,-4 l 4.7,-4.3 q 9.1,-7.7 17.4,-16.2 9.4,-9.6 19.2,-20 l 1.2,-1.4 q 19,-21.3 34.6,-42.8 l 2.2,-2.4 q 0.8,-1 1.3,-2 0.6,-1.5 1,-2.1 28.2,-39.7 48.1,-84.2 z"
       stroke-width="1.3"
       id="path94" />
    <circle
       fill="#cbd6e0"
       cx="463.60001"
       cy="88.199997"
       r="34"
       stroke-width="1.3"
       id="circle96" />
    <path
       fill="#ffd83b"
       d="m 516.2,85.9 q 66.3,5.3 124.7,37 l 2,1.3 q -1.3,1.9 -1.4,2.6 -8.7,44.7 -29.3,87.3 -8.6,17.8 -17.4,32.2 l -6.6,11.5 q -3.9,6.8 -8.7,12.2 -3.4,3.8 -5.3,7.6 a 1.7,2.5 79.5 0 1 -0.8,0.9 q -1.1,0.6 -2,2 -4.4,6 -10,12.5 L 551,305 q -9.8,11 -21,20.6 l -3.1,3.5 q -1.8,2.1 -4.8,2.7 -13,-98.4 -41.7,-193.3 0.3,-1 1.2,-1.2 l 1,-0.3 q 32.7,-14.5 33.7,-51.1 z"
       stroke-width="1.3"
       id="path98" />
    <path
       fill="#f6d13b"
       d="m 642.9,124.2 q 44.2,24.5 79.8,60.4 a 1.2,1 66.1 0 0 0.8,0.3 h 0.5 q -3.7,69 -34,129.4 -53.2,106 -161.5,155.8 2,-68.1 -6.5,-135.7 v -2.6 q 3,-0.6 4.8,-2.7 l 3.1,-3.5 q 11.2,-9.6 21,-20.6 l 10.5,-12 q 5.6,-6.4 10,-12.6 0.9,-1.3 2,-2 a 1.7,2.5 79.5 0 0 0.8,-0.8 q 1.9,-3.8 5.3,-7.6 4.8,-5.4 8.7,-12.2 l 6.6,-11.5 q 8.8,-14.4 17.4,-32.2 20.6,-42.6 29.3,-87.3 0.1,-0.7 1.4,-2.6 z"
       stroke-width="1.3"
       id="path100" />
    <path
       fill="#f2f2f2"
       d="m 437.2,133.9 q 20.5,10.1 42.7,4.3 a 0.3,0.2 59.5 0 1 0.2,0.2 h 0.2 q 28.8,95 41.7,193.4 v 2.6 q 0,0.5 -1.6,0.8 a 2.4,2.4 19.9 0 0 -1.1,0.5 q -50.5,42.8 -111.7,65.3 -64.2,23.5 -132.2,22.3 -13.8,-0.3 -26,-1.3 -25.6,-2 -51.7,-8.1 -1.1,-0.3 -2.3,-0.3 -1.4,0 -1.5,-1.3 43.4,-32.6 78.4,-67.2 59.7,-59 108.8,-127.3 29.6,-41.2 53.7,-80.7 1.4,-2.3 2.4,-3.2 z"
       stroke-width="1.3"
       id="path102" />
    <path
       fill="#eaeaea"
       d="m 522,334.4 q 8.5,67.6 6.5,135.7 -61.9,27.5 -129.7,29.3 h -14.6 q -115.9,-4 -205,-76.8 l 14.7,-10.3 q 0.1,1.3 1.5,1.3 1.2,0 2.3,0.3 26.1,6.1 51.7,8.1 12.2,1 26,1.3 68,1.2 132.2,-22.3 61.2,-22.5 111.7,-65.3 a 2.4,2.4 19.9 0 1 1.1,-0.5 q 1.7,-0.3 1.6,-0.8 z"
       stroke-width="1.3"
       id="path104" />
  </g>
</svg>
