<?xml version="1.0" encoding="UTF-8" standalone="no"?>
<svg
   width="398.64978"
   height="303.34097"
   viewBox="0 0 398.64978 303.34097"
   version="1.1"
   id="svg5008"
   sodipodi:docname="mm_white.svg"
   inkscape:version="1.2.2 (1:1.2.2+202212051552+b0a8486541)"
   xmlns:inkscape="http://www.inkscape.org/namespaces/inkscape"
   xmlns:sodipodi="http://sodipodi.sourceforge.net/DTD/sodipodi-0.dtd"
   xmlns="http://www.w3.org/2000/svg"
   xmlns:svg="http://www.w3.org/2000/svg">
  <defs
     id="defs5012" />
  <sodipodi:namedview
     id="namedview5010"
     pagecolor="#ffffff"
     bordercolor="#000000"
     borderopacity="0.25"
     inkscape:showpageshadow="2"
     inkscape:pageopacity="0.0"
     inkscape:pagecheckerboard="0"
     inkscape:deskcolor="#d1d1d1"
     showgrid="false"
     inkscape:zoom="0.70710678"
     inkscape:cx="-59.39697"
     inkscape:cy="389.61584"
     inkscape:window-width="1899"
     inkscape:window-height="1380"
     inkscape:window-x="0"
     inkscape:window-y="28"
     inkscape:window-maximized="0"
     inkscape:current-layer="svg5008" />
  <path
     d="m 398.48747,0.87222 -0.0479,0.015 -2.72048,1.04335 -2.72048,1.04335 C 377.46482,9.41664 361.93103,15.85937 346.39724,22.3021 l -0.8383,0.88749 -0.83883,0.8875 -2.46935,4.66014 -2.46988,4.66013 c -7.17037,13.28911 -14.34903,26.5737 -21.50601,39.87006 l -2.37511,4.40124 -2.37512,4.40124 -4.49755,8.36235 -4.49703,8.36236 -0.55507,-0.24129 -0.55456,-0.24129 -2.94262,-3.71983 C 291.69297,83.50309 282.88284,72.43401 274.08125,61.35818 l -3.71206,-4.78026 -3.71206,-4.78079 -1.29448,0.18589 -1.29448,0.18537 -3.62455,1.35248 -3.62455,1.35247 -23.04179,8.95057 -23.04179,8.95057 c -0.20737,76.85539 -0.32154,153.71094 -0.44211,230.56649 18.38891,-7.19393 36.90507,-14.8897 56.36375,-22.78447 l 0.38835,-0.37126 0.38886,-0.37074 c 0.003,-44.25386 0.005,-88.50773 0.008,-132.76159 l 0.3842,0.0166 0.38472,0.0171 c 11.89629,19.83741 23.79232,39.67497 35.68836,59.51253 h 0.36349 0.36349 l 3.47957,-6.60186 3.48009,-6.60186 1.40839,-2.58897 c 10.62695,-19.74239 21.17614,-39.52673 31.72673,-59.31007 l 0.36763,-0.22731 0.36763,-0.22679 c 0.61712,38.64661 0.70388,77.29449 0.73636,115.94471 h 0.19158 0.1921 l 6.64173,-2.86443 c 14.18107,-6.31976 28.58814,-12.13079 42.75572,-18.48159 l 2.45744,-1.10134 c 0.0875,-74.70337 0.13017,-149.00064 0.2182,-223.70401 l -0.063,0.008 -0.0217,-0.007 -0.0205,0.0235"
     stroke="none"
     fill="#1d3d8a"
     fill-rule="evenodd"
     id="path4998"
     sodipodi:nodetypes="cccccccccccccccccccccccccccccccccccccccccccccccccccc"
     style="fill:#ffffff;fill-opacity:1;stroke-width:0.517793" />
  <path
     d="M 0.34537,0.34541 0,0.69026 v 223.9211 l 0.64724,0.26718 0.64724,0.26718 c 16.74248,7.2369 33.48266,14.47907 50.22592,21.71417 l 0.34847,-0.32466 0.34848,-0.32465 c 0.25027,-38.42593 0.50053,-76.85187 0.7508,-115.2778 l 0.66018,0.68194 0.66071,0.68141 1.53163,2.84786 c 10.26389,19.37176 20.69044,38.65683 31.02097,57.99281 l 2.07428,3.88345 2.44036,4.52344 2.44036,4.52395 0.42925,0.26511 0.42925,0.26563 12.06923,-20.06396 12.06976,-20.06395 5.7154,-9.53671 5.71539,-9.5362 0.73061,-0.24336 -0.0432,-0.0543 0.0787,8.8722 0.01,9.46274 c -0.005,38.12095 -0.0107,76.2419 -0.016,114.36285 l 0.39715,0.37696 0.39715,0.37747 c 18.76301,7.789 37.53031,15.53591 56.56061,22.64485 0.0159,-77.7999 0.24876,-152.06661 0.427,-230.4072 l -0.7165,-0.12206 -0.60994,-0.1767 -15.14493,-5.99967 -15.1444,-5.99966 -12.68593,-4.92836 -12.68593,-4.92783 -1.06502,-0.33954 -0.75852,-0.27627 -0.63183,0.82292 -1.26083,1.71338 -4.67153,6.47241 -4.67204,6.47241 -7.47331,10.35586 -7.4733,10.35586 -4.56176,6.34038 -4.56175,6.34037 -0.41993,-0.25993 -0.41993,-0.25942 C 79.53366,72.24112 65.19338,44.8142 52.80036,22.39713 35.38668,15.13096 17.95177,7.91581 0.52295,0.68607 L 0.86624,0.3433 1.20902,0 H 0.95013 0.69123 L 0.34638,0.34537"
     stroke="none"
     fill="#18923b"
     fill-rule="evenodd"
     id="path5002"
     sodipodi:nodetypes="cccccccccccccccccccccccccccccccccccccccccccccccccccccccc"
     style="fill:#ffffff;fill-opacity:1;stroke-width:0.517793" />
</svg>
