<?xml version="1.0" encoding="UTF-8" standalone="no"?>
<svg
   version="1.1"
   viewBox="0 0 766.30946 613.93335"
   id="svg108"
   sodipodi:docname="wordmark.svg"
   width="766.30945"
   height="613.93335"
   inkscape:version="1.2.2 (1:1.2.2+202212051552+b0a8486541)"
   xmlns:inkscape="http://www.inkscape.org/namespaces/inkscape"
   xmlns:sodipodi="http://sodipodi.sourceforge.net/DTD/sodipodi-0.dtd"
   xmlns="http://www.w3.org/2000/svg"
   xmlns:svg="http://www.w3.org/2000/svg">
  <defs
     id="defs112" />
  <sodipodi:namedview
     id="namedview110"
     pagecolor="#ffffff"
     bordercolor="#000000"
     borderopacity="0.25"
     inkscape:showpageshadow="2"
     inkscape:pageopacity="0.0"
     inkscape:pagecheckerboard="0"
     inkscape:deskcolor="#d1d1d1"
     showgrid="false"
     inkscape:zoom="0.76813762"
     inkscape:cx="357.35784"
     inkscape:cy="-54.026777"
     inkscape:window-width="2560"
     inkscape:window-height="1380"
     inkscape:window-x="0"
     inkscape:window-y="28"
     inkscape:window-maximized="1"
     inkscape:current-layer="svg108" />
  <text
     xml:space="preserve"
     style="-inkscape-font-specification:'Nickname DEMO'"
     x="180.48396"
     y="162.83336"
     font-size="240px"
     font-family="'Nickname DEMO'"
     fill="none"
     fill-rule="evenodd"
     stroke-width="0"
     stroke-linecap="round"
     paint-order="stroke fill markers"
     id="text2" />
  <g
     aria-label="beachy"
     style="-inkscape-font-specification:'Nickname DEMO'"
     font-size="240px"
     font-family="'Nickname DEMO'"
     fill-rule="evenodd"
     stroke-width="0"
     stroke-linecap="round"
     paint-order="stroke fill markers"
     fill="#ffffff"
     fill-opacity="1"
     id="g6"
     transform="translate(-0.01603256,-723.06667)">
    <path
       d="m 5.6,748.9 c 0,8.4 -0.2,17 -0.5,25.4 0,3.6 -0.2,6.7 -0.4,9.8 L 3.9,800 c -0.2,4 0,7.9 -0.7,12.5 -0.7,8.4 -1.4,15.8 -1.2,24.2 0,3.6 0.3,6.2 0.3,9.8 V 859 l 1,14.7 c 0.2,3.6 0.4,7.4 -0.6,11 -0.2,2.2 -0.2,4.3 -0.2,6.2 0,2.2 1.7,3.9 3.6,3.9 2.6,0 4.6,0.2 7.2,0 4,-0.3 8.4,-1 12.5,-1.2 6.5,-0.7 13,-0.7 19.4,-1 1.7,-0.2 3.4,-0.2 5,-1 l 12.8,-3 c 5.5,-1.7 11.3,-2.7 16,-6.3 2,-1.7 4.4,-2.2 6.5,-3.4 1,-0.7 2.2,-1.2 3,-1.9 l 8.6,-8.6 c 1.2,-1.2 2.1,-2.9 3.3,-4.6 3.6,-6 5.8,-12.7 6.7,-19.9 1,-4.6 0.8,-8.9 -1,-13 l -1.6,-4.5 c -2.9,-8.4 -7.2,-15.1 -15.6,-19 -3.6,-1.9 -3.8,-2.4 -0.2,-5 2.6,-2.2 5.2,-3.9 7.9,-6.5 5.5,-6 9.3,-13 10.3,-21.4 0.7,-4.8 0.5,-9.3 -1.4,-13.9 l -5.3,-10.5 -2.2,-3.2 c -4.5,-3.6 -8.1,-7.4 -12.7,-10.5 -8.4,-5.5 -17,-9.1 -26.6,-11.8 -1.2,-0.7 -2.4,-0.5 -3.6,-0.7 l -14.2,-0.7 c -0.7,-0.3 -0.7,0 -1.4,0 -4.8,0.7 -9.6,1 -14.4,1.9 -4.6,0.7 -8.7,1.7 -13.2,2.6 -3.2,0.8 -4.8,2.7 -5.3,5.8 -0.3,1 -0.5,1.7 -0.5,2.2 L 5.4,748.9 Z M 46.2,839 c 0,-3.6 0,-6.5 0.2,-9.6 0,-2.2 0.7,-3.1 2.4,-3.4 3.9,-0.7 7.5,-1.4 11.3,-0.7 5.5,1.2 8.6,4.6 10.8,9.4 2.9,6.5 0,11.3 -3.6,14.9 a 12.5,12.5 0 0 1 -4,2.8 44.6,44.6 0 0 1 -12.6,4.1 c -3,0.3 -4,-0.5 -4,-3.6 l -0.5,-11 z m 23.3,-62.4 c -0.3,8.4 -4.4,13 -11.3,15.6 a 38,38 0 0 1 -7.5,2.2 c -2.6,0.4 -4,-0.5 -4.3,-3.2 -1,-5 -1.4,-10 -2.1,-14.8 -0.3,-2.7 -0.3,-4.8 -1,-7.5 -0.7,-4.8 0.5,-6.2 5.3,-5.5 5.5,0.7 10,2 14.9,3.8 4,1.5 6,4.6 6,9.4 z m 142,-27.7 c 0.3,-2 0.3,-3.9 0.3,-5.6 0,-2.6 0.2,-4.5 -0.5,-7.2 -0.5,-2.4 -2,-3.6 -4.6,-3.6 -2.6,-0.2 -4.5,-0.4 -7.2,-0.2 -5.5,0.2 -10.8,-0.5 -16.3,-1.2 -3.6,-0.2 -7.2,-0.5 -10.8,-0.2 -5,0 -9.8,0.4 -14.6,0.7 l -8.2,-0.3 c -2.6,0 -5.3,0 -8.1,0.3 h -3.6 c -3.9,0.2 -5.6,2.6 -5.8,5.7 l -0.7,6.5 c -0.7,6 -1.5,11.8 -1.7,18.3 0,8.8 -1,17.7 -1.7,26.6 l -2,28.3 a 298,298 0 0 0 -1.5,20.7 c -0.7,8.4 -1,16.3 -1.2,24.2 v 20.4 c -0.7,3.1 -1,6 -1.2,9.1 -0.2,2.9 1.7,4.6 4.6,4.3 2.1,-0.2 4.5,-0.4 6.7,-0.2 4.6,0.7 8.6,0 13.2,-1 a 97.2,97.2 0 0 1 28.8,-1.9 c 5.5,0 10.8,0 16.3,-0.7 l 8,-0.7 c 2.8,-0.3 6,0 8.8,-0.3 4.1,-0.2 8,-0.4 12,-1.2 2,-0.2 3.1,-1.6 3.4,-3.8 V 883 c 0.2,-2.9 0.5,-5.5 0.2,-8.4 0,-4.5 -0.5,-9.1 -0.7,-13.9 v -3.1 c -0.2,-2 -1.2,-3.1 -3.1,-3.6 -0.7,-0.3 -1.7,-0.3 -2.9,-0.3 -7.4,-0.2 -14.4,0 -21.8,-0.2 -5.6,0 -10.4,0 -15.4,1 -3.6,0.7 -7,0.7 -10.6,0.4 -2.6,-0.2 -4,-1 -4,-3.6 0,-1.9 0,-3.6 0.2,-5.5 0,-2.6 0.2,-5.5 0.5,-8.4 0,-2.1 0.7,-2.4 2.9,-3.1 l 6,-0.7 c 8.6,-1.2 17.5,-2.7 26.4,-2.4 l 4.3,0.2 c 4.5,0.3 8.4,-1 13,-1.7 2.1,-0.4 3,-1.9 3,-4 0,-1.7 -0.2,-3.6 -0.4,-5.3 L 220,801.7 c -0.2,-3.2 -1.9,-4.8 -4.8,-5 -6,-0.8 -12,-1.3 -18.4,-1.5 -3.6,-0.3 -7,-0.3 -10.6,-0.3 h -11.3 c -1.7,0 -2.6,0.3 -4.3,0 -2,-0.2 -2.9,-1.2 -3.1,-3 -0.7,-2.7 -0.5,-5.4 -0.5,-8 a 61,61 0 0 1 0,-9.4 c 0,-3.6 0.2,-4.3 3.8,-5 4.1,-0.7 8.2,-1 12.3,-1.2 7.4,-0.2 14.6,-0.2 22,-1.2 1.3,0 2.2,0 3.9,-0.2 2.6,-0.8 3.1,-1.7 3.4,-3.9 v -1.4 z M 368,875.8 c -0.2,-1.9 -0.2,-3.8 -0.2,-6 -0.7,-5.7 -1,-11.3 -1.7,-17 -0.7,-4.8 -0.7,-9.6 -1.4,-14.4 -0.3,-3.9 -0.8,-8 -1.5,-11.8 l -1.9,-12.2 c -1,-6.5 -2.4,-12.7 -3.4,-19.2 -1.2,-7.5 -1.6,-15.1 -2.4,-22.8 -0.7,-3.9 -1,-8 -1.2,-11.8 l -1.9,-15.8 c -0.7,-4.6 -0.5,-5.8 -6.2,-6.5 l -16.8,-2 -14.4,-1.8 c -5,-0.8 -10.3,-0.3 -15.4,-1 -8.4,-0.7 -16,0.2 -24.5,1.2 -3.8,0.2 -6.2,2.2 -7.2,5.8 -0.7,1.6 -1,2.4 -1.2,4 l -5.5,23 c -2.9,11.4 -5,22.6 -7,34.2 -0.2,2.8 -0.4,6 -1.1,8.8 l -5,24 c -1.3,6 -2.7,12 -4,18.5 l -5.2,26.7 c -0.7,3 -1,6.2 -1.7,9 -0.5,2.5 0.5,4 2.9,4.2 0.5,0.2 1.2,0.2 2,0.2 5.4,-0.7 10.5,-0.5 15.5,-1.2 l 20.2,-2 c 2.9,-0.2 4.5,-1.1 5.3,-4 0.7,-2.2 1,-4.3 1.2,-6.5 0.7,-4.8 1.4,-9.6 1.6,-14.4 0.3,-6.5 1.5,-12 2.2,-18.5 0.2,-3 1.2,-3.6 4.3,-3.3 3.6,0.2 6.5,0.2 10.1,0.2 5,0 10.3,0.7 15.8,2 5,1.6 5.6,1.9 6.5,6.9 l 2.2,15.1 3.1,17.8 c 0.5,3.6 2.6,5.3 6.2,4.8 2.7,-0.3 5,-0.3 7.7,-0.3 2.7,0 5.3,0.3 8.2,0.3 2.6,0 4.5,-0.3 7.2,-0.5 2.1,-0.2 4.3,0 6.5,-0.7 2.6,-0.7 3,-1.2 3,-3.9 z m -47.5,-69.3 c 0,2.6 -1.2,4 -3.6,4.3 l -17,1 c -0.3,0.2 -0.8,0.2 -1.5,0.2 -2.6,0.2 -3.8,-1 -3.3,-3.6 a 20,20 0 0 1 1.4,-5 c 1.2,-7 2.2,-14 3.8,-20.7 0.8,-2.2 0.8,-4.3 1.5,-6.2 0.7,-2 1.9,-3 3.8,-3 2.2,0 4.3,0.3 6.5,0.6 2,0.2 3.1,1.2 3.6,3.3 1,3.6 1.7,7.5 2.4,11 1,5.8 1.4,11.6 2.2,17.3 0,0.3 0.2,0.3 0.2,0.5 z m 61.2,14.1 c 0.2,4.8 0,9.9 0.7,14.7 l 2.2,10 a 59,59 0 0 0 28.3,40.6 c 7,4 14.2,6.7 21.4,8.2 4.5,1 8.6,1.6 13.2,1 5,-0.8 10.3,-1 15.3,-1.8 3.6,-0.7 6.7,-1 9.9,-1.9 2.6,-0.5 4,-2.1 4,-5 -0.2,-5.5 0,-11 -0.7,-16.6 a 127,127 0 0 0 -1.2,-13.4 c -0.2,-3.6 -1.7,-4.6 -5.3,-4.3 -3.6,0.2 -6.7,0.2 -10.3,-0.5 -3.6,-0.7 -7.7,-0.7 -11.5,-1.5 -3.1,-0.2 -6,-1 -8.6,-2.1 -5,-2 -7.7,-6 -10.4,-10.6 l -5.2,-12 c -3.2,-7.9 -4.8,-16.3 -4.8,-25.7 0.2,-5.7 1.4,-11 4.3,-16 4.8,-9 12,-14.2 21.6,-15.6 l 6,-0.8 17.3,-2.6 c 2.6,-0.5 4,-2 4.8,-4.3 l 0.7,-2.4 c 0.7,-8 1.7,-15.6 1.4,-24 0,-2.7 -1.2,-4.1 -3.3,-4.8 -2,-0.7 -3.6,-0.7 -5.6,-1 -3.8,-0.7 -7.6,-0.7 -11.5,-1 -2.1,-0.2 -4.3,-0.2 -6.5,0 -5.5,1 -10.8,1.7 -16.3,4.4 a 128,128 0 0 0 -17,8.9 44,44 0 0 0 -15.4,14.4 l -8.6,15 c -1.2,2.7 -2.4,5.1 -3.1,7.8 a 157.5,157.5 0 0 0 -5.8,43 z m 197,-61.2 c 0,9.4 -0.2,18 -0.4,27.4 0,1.2 0.2,2.1 0,3.1 -0.3,2.2 -1.2,3.4 -3.4,3.4 -2,0 -3.8,-0.3 -5.5,-0.5 -4.8,-0.7 -9.6,-1.5 -14.4,-1.7 -4.6,-0.2 -8.9,-0.2 -13.5,-0.2 -2.6,0 -3.8,-1.5 -3.8,-4.4 l 0.7,-13.6 -0.2,-22.1 c 0,-0.7 -0.3,-1 -0.3,-1.7 L 536,732.5 c -0.5,-2.1 -1.7,-3.6 -3.6,-4 -2.1,-0.3 -4.3,-0.5 -6.5,-0.5 l -12,-0.5 c -2.8,0 -5.7,-0.5 -8.6,-0.5 -3.8,0 -5.3,1 -6.5,4.6 a 39.5,39.5 0 0 0 -2.4,13.9 c -0.2,2 0.5,3.8 0.5,6 v 22 c 0,4.6 -0.5,8.7 -0.7,12.8 -0.3,8.6 -0.5,17 -1.2,25.7 l -0.5,12.5 c -1,7.9 -1.2,15.6 -1.2,23.5 0.2,6.5 0.2,12.5 0.2,19 0,3.5 0.3,7.1 0.3,10.7 0.2,3.6 1.2,4.4 4.8,5 l 2.1,0.6 19.2,2.1 c 3.2,0.7 6,0.5 9.2,0.5 2.1,0 3.6,-1.2 3.8,-3.6 0.2,-3.8 0.5,-7.7 0.5,-11.5 0,-6.5 0,-12.5 0.2,-19 v -1.4 c 0.3,-4.8 0.3,-9.9 1,-14.7 0,-1.9 0,-3.8 0.2,-5.7 0.3,-2.7 1.5,-3.9 3.9,-3.9 0.4,-0.2 1,-0.2 1.6,-0.2 4.8,0 9.4,0.2 14,0 1.6,0 2.8,-0.2 4.5,0 4.6,0.5 8.7,0.5 12.7,-0.2 1.2,-0.3 2.4,-0.5 3.4,-0.5 2.2,0 3.4,1.2 3.4,3.3 0.2,3.2 0.4,6.8 0.2,9.9 -0.2,3.8 -1,7.7 -1.2,11.5 -0.2,2.9 -0.7,5.8 -0.7,8.6 l 0.7,10.4 0.7,10.8 c 0.3,2.1 0.5,4.3 1.2,6.4 0.5,2.2 1.7,3.4 3.9,3.4 4,0 8.1,0 12.2,-1 l 6.7,-1.9 c 4.6,-1 8.7,-2.1 13.2,-1.4 2.4,0.2 3.9,-1 4.3,-3.4 v -4.3 c -0.2,-7.4 -0.7,-14.6 -0.7,-22 0,-17.4 0.3,-34 0.5,-51.2 0,-3.8 0.5,-7.7 0.7,-11.5 0,-5.5 0.3,-10.8 0.3,-16.3 -0.3,-5.8 -1,-11.6 -1.2,-17.3 -0.8,-6 -1,-12 -1.7,-18 0,-0.7 -0.3,-2 -0.5,-3.1 -0.7,-2.2 -2.2,-3.2 -4.6,-3.2 h -3.6 l -11.5,-0.2 h -14.4 c -2.6,0.2 -3.8,1.7 -4,4.6 v 1.6 c 0,6 0.2,12 0,18.5 z m 96.5,117.9 v 4.8 c 0.3,4.5 1.2,5.5 5.8,5.2 4.5,-0.2 9.1,-0.4 13.7,-0.4 1.2,0 2.4,-0.3 3.3,-0.3 l 14.7,0.5 c 4,0 7.9,0.5 12,0.7 1.9,0 3,-1 3.8,-2.9 0.2,-1.6 0.7,-2.6 0.5,-4.3 0,-6.5 -0.5,-12.2 -0.7,-18.7 l -0.5,-27.1 c 0,-5.5 -0.3,-10.1 -0.5,-15.6 a 11,11 0 0 1 1,-6.5 c 1.9,-3.8 3.8,-7.7 6,-11.5 l 6.4,-12 c 1.7,-2.9 2.7,-6 4.4,-8.9 l 10.5,-21.4 c 1.7,-3.6 3.6,-7.2 4.8,-10.8 2,-5.5 3.9,-11 5.5,-16.5 0.5,-2.4 -0.4,-3.9 -2.8,-4.3 l -5.6,-0.5 c -1.6,0 -3.3,0 -5,-0.3 -3.8,-0.7 -7.4,-0.4 -11.3,-1.2 l -7.7,-0.4 c -2.4,0 -4.3,1 -5.5,2.6 a 123.6,123.6 0 0 0 -14.1,25.2 l -11.6,25.7 -1.4,2.1 c -0.7,1.2 -1.7,1.2 -2.4,0 l -1.4,-2.8 c -1,-2.2 -1.7,-4.4 -2.4,-6.3 -3,-7.4 -5.8,-14.6 -9.9,-21.3 -1.9,-3.6 -3.8,-7 -5.5,-10.6 l -3.4,-6.5 c -1.2,-2.9 -3.6,-4.3 -7,-4.3 l -10.7,0.7 c -5,0.7 -9.9,1 -15.4,1.7 -2.6,0 -4.5,-0.2 -7.2,0.5 -2.6,0.2 -3.3,1.7 -2.6,4.3 a 16,16 0 0 0 2.1,4.6 l 8,13.6 c 4.5,7.7 8.1,15.6 12.7,23.3 2.9,5.8 5.5,11.5 10,16.3 l 3.7,5 c 2.1,3.7 4.3,6.6 6.2,10.2 1.4,2.1 2.2,4.3 2.4,6.2 1,6.5 0.7,12 0.5,18.5 a 209,209 0 0 1 -1.2,17.3 l -1,10.5 -1.4,15.9 z"
       id="path4" />
  </g>
  <g
     aria-label="beachy"
     style="-inkscape-font-specification:'Nickname DEMO'"
     font-size="240px"
     font-family="'Nickname DEMO'"
     fill-rule="evenodd"
     stroke-width="0"
     stroke-linecap="round"
     paint-order="stroke fill markers"
     fill="#ffffff"
     fill-opacity="1"
     id="g10"
     transform="translate(-0.01603256,-723.06667)">
    <path
       d="m 5.9,930 c 0,8.4 -0.3,17 -0.5,25.4 0,3.6 -0.2,6.8 -0.5,9.9 L 4.2,981 c -0.2,4.1 0,8 -0.7,12.5 -0.7,8.4 -1.5,15.8 -1.2,24.2 l 0.2,9.9 v 12.5 l 1,14.6 c 0.2,3.6 0.5,7.4 -0.5,11 -0.2,2.2 -0.2,4.4 -0.2,6.3 0,2.1 1.6,3.8 3.6,3.8 2.6,0 4.5,0.3 7.2,0 4,-0.2 8.4,-1 12.4,-1.2 6.5,-0.7 13,-0.7 19.5,-1 1.7,-0.2 3.3,-0.2 5,-0.9 l 12.7,-3.1 c 5.6,-1.7 11.3,-2.7 16.1,-6.3 2,-1.6 4.3,-2.1 6.5,-3.3 1,-0.7 2.2,-1.2 2.9,-2 l 8.6,-8.6 c 1.2,-1.2 2.2,-2.9 3.4,-4.5 3.6,-6 5.7,-12.8 6.7,-20 1,-4.5 0.7,-8.8 -1,-13 l -1.6,-4.5 c -3,-8.4 -7.2,-15.1 -15.6,-19 -3.6,-1.9 -3.9,-2.3 -0.3,-5 2.7,-2.1 5.3,-3.8 8,-6.5 5.5,-6 9.3,-13 10.3,-21.3 0.7,-4.8 0.4,-9.4 -1.5,-14 l -5.3,-10.5 -2.1,-3.1 c -4.6,-3.6 -8.2,-7.5 -12.7,-10.6 -8.4,-5.5 -17,-9.1 -26.7,-11.7 -1.2,-0.8 -2.4,-0.5 -3.6,-0.8 l -14.1,-0.7 c -0.8,-0.2 -0.8,0 -1.5,0 -4.8,0.7 -9.6,1 -14.4,2 -4.5,0.7 -8.6,1.6 -13.2,2.6 -3.1,0.7 -4.8,2.6 -5.3,5.7 l -0.4,2.2 -0.8,13.2 z m 40.5,90.2 c 0,-3.6 0,-6.4 0.3,-9.6 0,-2.1 0.7,-3 2.4,-3.3 3.8,-0.7 7.4,-1.5 11.3,-0.7 5.5,1.2 8.6,4.5 10.8,9.3 2.8,6.5 0,11.3 -3.6,14.9 a 12.5,12.5 0 0 1 -4.1,2.9 44.6,44.6 0 0 1 -12.5,4 c -3.1,0.3 -4,-0.4 -4,-3.5 l -0.6,-11 z m 23.3,-62.4 c -0.2,8.4 -4.3,13 -11.3,15.6 a 38,38 0 0 1 -7.4,2.2 c -2.6,0.5 -4,-0.5 -4.3,-3.1 -1,-5 -1.5,-10.1 -2.2,-14.9 -0.2,-2.6 -0.2,-4.8 -1,-7.4 -0.7,-4.8 0.5,-6.3 5.3,-5.6 5.6,0.8 10.1,2 15,3.9 4,1.4 6,4.5 6,9.3 z M 211.8,930 c 0.2,-2 0.2,-3.8 0.2,-5.5 0,-2.7 0.3,-4.6 -0.5,-7.2 -0.4,-2.4 -1.9,-3.6 -4.5,-3.6 -2.7,-0.3 -4.6,-0.5 -7.2,-0.3 -5.5,0.3 -10.8,-0.4 -16.3,-1.2 -3.6,-0.2 -7.2,-0.4 -10.8,-0.2 -5,0 -9.9,0.5 -14.7,0.7 l -8.1,-0.2 c -2.7,0 -5.3,0 -8.2,0.2 h -3.6 c -3.8,0.3 -5.5,2.7 -5.8,5.8 l -0.7,6.5 c -0.7,6 -1.4,11.7 -1.7,18.2 0,8.9 -1,17.8 -1.6,26.6 l -2.2,28.4 a 298,298 0 0 0 -1.4,20.6 c -0.8,8.4 -1,16.3 -1.2,24.2 v 20.4 c -0.8,3.2 -1,6 -1.2,9.2 -0.3,2.8 1.6,4.5 4.5,4.3 2.2,-0.3 4.6,-0.5 6.7,-0.3 4.6,0.8 8.7,0 13.2,-1 a 97.2,97.2 0 0 1 28.8,-1.8 c 5.6,0 10.8,0 16.4,-0.8 l 7.9,-0.7 c 2.9,-0.2 6,0 8.9,-0.2 4,-0.3 7.9,-0.5 12,-1.2 1.9,-0.3 3,-1.7 3.3,-3.9 v -2.8 c 0.3,-3 0.5,-5.6 0.3,-8.4 0,-4.6 -0.5,-9.2 -0.8,-14 v -3 c -0.2,-2 -1.2,-3.2 -3,-3.7 -0.8,-0.2 -1.8,-0.2 -3,-0.2 -7.4,-0.3 -14.4,0 -21.8,-0.3 -5.5,0 -10.3,0 -15.4,1 -3.6,0.7 -7,0.7 -10.5,0.5 -2.7,-0.3 -4,-1 -4,-3.6 l 0.1,-5.5 c 0,-2.7 0.3,-5.6 0.5,-8.4 0,-2.2 0.7,-2.4 3,-3.2 l 6,-0.7 c 8.5,-1.2 17.4,-2.6 26.3,-2.4 1.7,0 2.6,0.3 4.3,0.3 4.6,0.2 8.4,-1 13,-1.7 2.1,-0.5 3.1,-2 3.1,-4.1 0,-1.7 -0.2,-3.6 -0.5,-5.3 l -1.4,-18.7 c -0.3,-3.1 -2,-4.8 -4.8,-5 -6,-0.8 -12,-1.2 -18.5,-1.5 -3.6,-0.2 -7,-0.2 -10.6,-0.2 h -11.2 c -1.7,0 -2.7,0.2 -4.4,0 -1.9,-0.3 -2.8,-1.2 -3,-3.1 -0.8,-2.7 -0.6,-5.3 -0.6,-8 a 61,61 0 0 1 0,-9.3 c 0,-3.6 0.3,-4.3 3.9,-5 4,-0.8 8.1,-1 12.2,-1.3 7.5,-0.2 14.7,-0.2 22.1,-1.2 1.2,0 2.2,0 3.8,-0.2 2.7,-0.7 3.2,-1.7 3.4,-3.8 v -1.5 z m 156.5,127 c -0.3,-2 -0.3,-3.9 -0.3,-6 -0.7,-5.8 -1,-11.3 -1.7,-17 -0.7,-4.9 -0.7,-9.7 -1.4,-14.5 -0.2,-3.8 -0.7,-7.9 -1.4,-11.7 l -2,-12.3 c -1,-6.5 -2.4,-12.7 -3.3,-19.2 -1.2,-7.4 -1.7,-15.1 -2.4,-22.8 -0.7,-3.8 -1,-7.9 -1.2,-11.7 l -2,-15.9 c -0.7,-4.5 -0.4,-5.7 -6.2,-6.5 l -16.8,-1.9 -14.4,-1.9 c -5,-0.7 -10.3,-0.2 -15.3,-1 -8.4,-0.7 -16.1,0.3 -24.5,1.2 -3.9,0.3 -6.3,2.2 -7.2,5.8 -0.7,1.7 -1,2.4 -1.2,4 l -5.5,23.1 c -3,11.3 -5,22.6 -7,34.1 -0.2,2.9 -0.5,6 -1.2,8.9 l -5,24 c -1.2,6 -2.7,12 -3.9,18.5 l -5.3,26.6 c -0.7,3.1 -1,6.2 -1.6,9.1 -0.5,2.4 0.4,3.9 2.8,4.1 0.5,0.2 1.2,0.2 2,0.2 5.5,-0.7 10.5,-0.4 15.6,-1.2 l 20.1,-1.9 c 3,-0.2 4.6,-1.2 5.3,-4 0.7,-2.2 1,-4.4 1.2,-6.5 0.7,-4.8 1.4,-9.6 1.7,-14.4 0.2,-6.5 1.4,-12 2.1,-18.5 0.3,-3.1 1.2,-3.6 4.4,-3.4 3.6,0.3 6.4,0.3 10,0.3 5,0 10.4,0.7 15.9,1.9 5,1.7 5.5,1.9 6.5,7 l 2.1,15 3.1,17.8 c 0.5,3.6 2.7,5.3 6.3,4.8 2.6,-0.2 5,-0.2 7.7,-0.2 l 8.1,0.2 c 2.7,0 4.6,-0.2 7.2,-0.5 2.2,-0.2 4.3,0 6.5,-0.7 2.6,-0.7 3.1,-1.2 3.1,-3.8 z m -47.6,-69.4 c 0,2.6 -1.2,4 -3.6,4.3 l -17,1 c -0.2,0.2 -0.7,0.2 -1.4,0.2 -2.7,0.3 -3.9,-1 -3.4,-3.6 a 20,20 0 0 1 1.4,-5 c 1.2,-7 2.2,-14 3.9,-20.7 0.7,-2.1 0.7,-4.3 1.4,-6.2 0.7,-2 2,-2.9 3.9,-2.9 2.1,0 4.3,0.3 6.4,0.5 2,0.2 3.2,1.2 3.6,3.4 1,3.6 1.7,7.4 2.4,11 1,5.8 1.5,11.5 2.2,17.3 0,0.2 0.2,0.2 0.2,0.5 z m 61.3,14.2 c 0.2,4.8 0,9.8 0.7,14.6 l 2.1,10 a 59,59 0 0 0 28.3,40.6 c 7,4.1 14.2,6.8 21.4,8.2 4.6,1 8.6,1.7 13.2,1 5,-0.8 10.3,-1 15.4,-1.7 3.6,-0.7 6.7,-1 9.8,-2 2.6,-0.4 4,-2.1 4,-5 -0.2,-5.5 0,-11 -0.6,-16.5 a 127,127 0 0 0 -1.2,-13.5 c -0.3,-3.6 -1.7,-4.5 -5.3,-4.3 -3.6,0.2 -6.7,0.2 -10.3,-0.5 -3.6,-0.7 -7.7,-0.7 -11.6,-1.4 -3,-0.3 -6,-1 -8.6,-2.2 -5,-1.9 -7.7,-6 -10.3,-10.5 l -5.3,-12 c -3.1,-8 -4.8,-16.4 -4.8,-25.7 0.2,-5.8 1.4,-11 4.3,-16.1 4.8,-8.9 12,-14.2 21.6,-15.6 l 6,-0.7 17.3,-2.7 c 2.6,-0.4 4,-1.9 4.8,-4.3 l 0.7,-2.4 c 0.7,-7.9 1.7,-15.6 1.5,-24 0,-2.6 -1.2,-4 -3.4,-4.8 -2,-0.7 -3.6,-0.7 -5.5,-1 -3.9,-0.7 -7.7,-0.7 -11.5,-0.9 -2.2,-0.2 -4.4,-0.2 -6.5,0 -5.5,1 -10.8,1.7 -16.3,4.3 a 128,128 0 0 0 -17,8.9 44,44 0 0 0 -15.4,14.4 l -8.7,15.1 c -1.2,2.7 -2.4,5 -3,7.7 a 157.5,157.5 0 0 0 -5.8,43 z m 197,-61.2 c 0,9.3 -0.3,18 -0.5,27.3 0,1.2 0.2,2.2 0,3.1 -0.2,2.2 -1.2,3.4 -3.4,3.4 -1.9,0 -3.8,-0.2 -5.5,-0.5 -4.8,-0.7 -9.6,-1.4 -14.4,-1.7 -4.5,-0.2 -8.9,-0.2 -13.4,-0.2 -2.7,0 -3.9,-1.4 -3.9,-4.3 l 0.8,-13.7 c 0,-7.4 -0.3,-14.6 -0.3,-22 l -0.2,-1.8 -2,-16.5 c -0.4,-2.2 -1.6,-3.6 -3.5,-4.1 -2.2,-0.2 -4.4,-0.5 -6.5,-0.5 l -12,-0.5 c -2.9,0 -5.8,-0.4 -8.7,-0.4 -3.8,0 -5.2,1 -6.4,4.5 a 39.5,39.5 0 0 0 -2.4,14 c -0.3,1.9 0.4,3.8 0.4,6 v 22 c 0,4.6 -0.4,8.7 -0.7,12.7 -0.2,8.7 -0.5,17 -1.2,25.7 l -0.5,12.5 c -1,8 -1.2,15.6 -1.2,23.5 0.3,6.5 0.3,12.5 0.3,19 l 0.2,10.8 c 0.3,3.6 1.2,4.3 4.8,5 l 2.2,0.5 19.2,2.2 c 3.1,0.7 6,0.4 9.1,0.4 2.2,0 3.6,-1.2 3.8,-3.6 0.3,-3.8 0.5,-7.6 0.5,-11.5 0,-6.5 0,-12.5 0.3,-19 v -1.4 c 0.2,-4.8 0.2,-9.8 1,-14.6 0,-2 0,-3.9 0.2,-5.8 0.2,-2.6 1.4,-3.8 3.8,-3.8 0.5,-0.3 1,-0.3 1.7,-0.3 4.8,0 9.3,0.3 14,0 1.6,0 2.8,-0.2 4.5,0 4.5,0.5 8.6,0.5 12.7,-0.2 1.2,-0.2 2.4,-0.5 3.3,-0.5 2.2,0 3.4,1.2 3.4,3.4 0.2,3.1 0.5,6.7 0.2,9.8 -0.2,3.9 -1,7.7 -1.2,11.5 -0.2,3 -0.7,5.8 -0.7,8.7 l 0.7,10.3 0.8,10.8 c 0.2,2.2 0.4,4.3 1.2,6.5 0.4,2.1 1.6,3.3 3.8,3.3 4,0 8.2,0 12.2,-1 l 6.8,-1.8 c 4.5,-1 8.6,-2.2 13.2,-1.5 2.4,0.3 3.8,-1 4.3,-3.3 v -4.4 c -0.3,-7.4 -0.7,-14.6 -0.7,-22 0,-17.3 0.2,-33.9 0.4,-51.2 0,-3.8 0.5,-7.6 0.8,-11.5 l 0.2,-16.3 c -0.2,-5.8 -1,-11.5 -1.2,-17.3 -0.7,-6 -1,-12 -1.7,-18 0,-0.7 -0.2,-1.9 -0.5,-3.1 -0.7,-2.2 -2.1,-3.1 -4.5,-3.1 H 609 c -3.9,0 -7.7,-0.3 -11.5,-0.3 H 583 c -2.7,0.3 -3.9,1.7 -4.1,4.6 v 1.7 c 0,6 0.2,12 0,18.5 z m 96.5,117.8 v 4.8 c 0.2,4.6 1.2,5.5 5.7,5.3 4.6,-0.3 9.1,-0.5 13.7,-0.5 l 3.4,-0.2 14.6,0.4 c 4,0 8,0.5 12,0.8 2,0 3.1,-1 3.8,-3 0.3,-1.6 0.8,-2.6 0.5,-4.2 0,-6.5 -0.5,-12.3 -0.7,-18.8 l -0.5,-27 c 0,-5.6 -0.2,-10.2 -0.5,-15.7 a 11,11 0 0 1 1,-6.5 c 2,-3.8 3.8,-7.6 6,-11.5 l 6.5,-12 c 1.7,-2.9 2.6,-6 4.3,-8.9 l 10.6,-21.3 c 1.6,-3.6 3.6,-7.2 4.8,-10.8 1.9,-5.5 3.8,-11 5.5,-16.6 0.5,-2.4 -0.5,-3.8 -2.9,-4.3 l -5.5,-0.5 c -1.7,0 -3.4,0 -5,-0.2 -3.9,-0.7 -7.5,-0.5 -11.3,-1.2 l -7.7,-0.5 c -2.4,0 -4.3,1 -5.5,2.6 a 123.6,123.6 0 0 0 -14.2,25.2 l -11.5,25.7 -1.5,2.2 c -0.7,1.2 -1.6,1.2 -2.4,0 l -1.4,-2.9 c -1,-2.2 -1.7,-4.3 -2.4,-6.2 -2.9,-7.5 -5.8,-14.7 -9.8,-21.4 -2,-3.6 -3.9,-7 -5.6,-10.6 l -3.3,-6.4 c -1.2,-3 -3.6,-4.4 -7,-4.4 l -10.8,0.8 c -5,0.7 -9.8,1 -15.3,1.6 -2.7,0 -4.6,-0.2 -7.2,0.5 -2.7,0.3 -3.4,1.7 -2.7,4.3 a 16,16 0 0 0 2.2,4.6 l 8,13.7 c 4.5,7.7 8,15.6 12.6,23.3 3,5.7 5.5,11.5 10.1,16.3 l 3.6,5 c 2.2,3.6 4.3,6.5 6.2,10.1 1.5,2.2 2.2,4.3 2.4,6.2 a 209,209 0 0 1 -0.7,35.8 l -1,10.6 -1.4,15.8 z"
       id="path8" />
  </g>
  <g
     aria-label="ball!"
     style="-inkscape-font-specification:'Nickname DEMO'"
     font-size="353.1px"
     font-family="'Nickname DEMO'"
     fill-rule="evenodd"
     stroke-width="0"
     stroke-linecap="round"
     paint-order="stroke fill markers"
     fill="#ffffff"
     fill-opacity="1"
     id="g14"
     transform="translate(-0.01603256,-723.06667)">
    <path
       d="m 5.4,1121.2 c 0,12.4 -0.4,25.1 -0.7,37.5 0,5.3 -0.4,9.9 -0.7,14.4 l -1.1,23.3 c -0.4,6 0,11.7 -1,18.4 -1.1,12.4 -2.2,23.3 -1.8,35.7 0,5.3 0.3,9.2 0.3,14.4 v 18.4 l 1.4,21.5 c 0.4,5.3 0.7,11 -0.7,16.3 -0.3,3.2 -0.3,6.3 -0.3,9.2 0,3.1 2.4,5.6 5.3,5.6 3.9,0 6.7,0.4 10.6,0 6,-0.3 12.3,-1.4 18.3,-1.7 9.6,-1.1 19,-1.1 28.6,-1.5 2.5,-0.3 5,-0.3 7.4,-1.4 l 18.8,-4.6 c 8,-2.4 16.6,-3.8 23.6,-9.1 2.8,-2.5 6.4,-3.2 9.5,-5 1.5,-1 3.2,-1.7 4.3,-2.8 l 12.7,-12.7 c 1.8,-1.8 3.2,-4.3 5,-6.7 a 76,76 0 0 0 9.8,-29.3 c 1.4,-6.7 1,-13.1 -1.4,-19.1 l -2.5,-6.7 c -4.2,-12.4 -10.6,-22.3 -23,-28 -5.2,-2.7 -5.6,-3.4 -0.3,-7.3 4,-3.2 7.8,-5.7 11.7,-9.6 a 55,55 0 0 0 15.2,-31.4 c 1,-7 0.7,-13.8 -2.1,-20.5 l -7.8,-15.5 -3.2,-4.6 c -6.7,-5.3 -12,-11 -18.7,-15.5 -12.4,-8.1 -25,-13.4 -39.2,-17.3 -1.8,-1 -3.5,-0.7 -5.3,-1 l -20.8,-1.1 c -1,-0.4 -1,0 -2.1,0 -7.1,1 -14.2,1.4 -21.2,2.8 -6.7,1 -12.7,2.5 -19.5,3.9 -4.5,1 -7,3.9 -7.7,8.4 -0.4,1.5 -0.7,2.5 -0.7,3.2 l -1,19.4 z M 65,1254 c 0,-5.3 0,-9.5 0.4,-14.1 0,-3.2 1,-4.6 3.5,-5 5.7,-1 11,-2 16.6,-1 8.1,1.7 12.7,6.7 16,13.7 4.1,9.6 0,16.6 -5.4,22 a 18.5,18.5 0 0 1 -6,4.2 c -6.3,3.2 -12.3,5 -18.4,6 -4.5,0.3 -6,-0.7 -6,-5.3 L 65,1258.2 Z m 34.3,-91.8 c -0.4,12.4 -6.4,19 -16.6,23 -3.5,1.4 -7,2.4 -11,3.1 -3.8,0.7 -6,-0.7 -6.3,-4.6 -1.4,-7.4 -2.1,-14.8 -3.2,-21.9 -0.3,-3.8 -0.3,-7 -1.4,-10.9 -1,-7 0.7,-9.2 7.8,-8.1 8,1 14.8,2.8 21.9,5.6 6,2.1 8.8,6.7 8.8,13.8 z M 366.6,1308 c -0.4,-2.8 -0.4,-5.6 -0.4,-8.8 -1,-8.5 -1.4,-16.6 -2.4,-25 -1.1,-7.1 -1.1,-14.2 -2.2,-21.3 -0.3,-5.6 -1,-11.6 -2,-17.3 l -2.9,-18 c -1.4,-9.5 -3.5,-18.7 -5,-28.2 -1.7,-11 -2.4,-22.3 -3.5,-33.6 -1,-5.6 -1.4,-11.6 -1.7,-17.3 l -2.9,-23.3 c -1,-6.7 -0.7,-8.4 -9.1,-9.5 l -24.8,-2.8 -21.2,-2.8 c -7.4,-1.1 -15.1,-0.4 -22.6,-1.5 -12.3,-1 -23.6,0.4 -36,1.8 -5.6,0.4 -9.1,3.2 -10.6,8.5 -1,2.5 -1.4,3.5 -1.7,6 l -8.1,33.9 a 600.5,600.5 0 0 0 -10.3,50.1 c -0.3,4.3 -0.7,8.8 -1.8,13 l -7.4,35.4 c -1.7,8.8 -3.8,17.6 -5.6,27.2 l -7.8,39.2 c -1,4.6 -1.4,9.2 -2.5,13.4 -0.7,3.5 0.8,5.6 4.3,6 0.7,0.3 1.7,0.3 2.8,0.3 8.1,-1 15.5,-0.7 23,-1.7 l 29.6,-2.8 c 4.3,-0.4 6.7,-1.8 7.8,-6 1,-3.2 1.4,-6.4 1.8,-9.6 1,-7 2,-14.1 2.4,-21.2 0.4,-9.5 2.1,-17.6 3.2,-27.2 0.4,-4.5 1.8,-5.2 6.4,-4.9 5.3,0.4 9.5,0.4 14.8,0.4 7.4,0 15.2,1 23.3,2.8 7.4,2.5 8.1,2.8 9.5,10.2 l 3.2,22.3 4.6,26.1 c 0.7,5.3 3.9,7.8 9.2,7 3.9,-0.3 7.4,-0.3 11.3,-0.3 3.9,0 7.7,0.4 12,0.4 3.9,0 6.7,-0.4 10.6,-0.7 3.1,-0.4 6.3,0 9.5,-1.1 3.9,-1 4.6,-1.8 4.6,-5.7 z m -70,-102 c 0,3.9 -1.7,6 -5.2,6.3 l -25.1,1.5 c -0.4,0.3 -1,0.3 -2.1,0.3 -3.9,0.4 -5.7,-1.4 -5,-5.3 0.4,-2.5 1.1,-5 2.2,-7.4 1.7,-10.2 3.1,-20.5 5.6,-30.4 1,-3.2 1,-6.3 2.1,-9.2 1,-2.8 2.9,-4.2 5.7,-4.2 3.2,0 6.3,0.4 9.5,0.7 2.8,0.4 4.6,1.8 5.3,5 1.4,5.3 2.5,10.9 3.5,16.2 1.5,8.5 2.2,17 3.2,25.4 0,0.4 0.4,0.4 0.4,0.7 z m 181.9,121 c 7,0 14.1,0.4 21.2,-0.6 6,-0.4 11.7,-1 17.3,-2.1 4.2,-0.7 6.4,-3.6 6.4,-8.2 0,-4.2 0.3,-8.8 -0.7,-13 a 562,562 0 0 0 -3.6,-24 c -0.3,-4 -2.8,-5.3 -6.7,-5.7 -6,-1 -12.3,-1 -18.4,-2.1 -11.6,-1.8 -22.9,-4.2 -35.3,-4.6 -1,0 -2,0 -2.4,-0.3 -1.8,-0.4 -2.9,-1.5 -3.2,-3.6 -0.4,-0.7 -0.4,-1.7 -0.4,-3.5 0,-3.9 0.4,-7.4 0,-10.6 -1,-9.5 0,-18 0.4,-27.5 l 1,-22 c 0.4,-2.4 0.4,-4.9 0.4,-7.7 l 1,-25 c 0.4,-6.8 0,-12.8 1.1,-18.8 1,-14.1 2.8,-28.2 4.3,-42.4 0.3,-5.2 -1.1,-6.7 -6.4,-7 l -18.4,-1.4 c -2.4,0 -5.3,-0.4 -7.7,0 -5.3,1 -10,1.4 -15.2,2.4 -2.8,0.4 -5.3,0.8 -8.1,1.8 -4.6,0.7 -7.4,3.5 -8.5,8.5 0,1 -0.4,1 -0.4,2.1 a 251,251 0 0 0 -1.7,23 c -0.4,8 -0.4,15.1 -0.4,23.3 l -0.7,13.7 c -0.3,8.2 -0.3,15.2 -1.4,22.6 v 10 c -0.3,11.2 -0.7,22.2 -0.7,33.5 0,8 0.4,15.5 0.7,23.6 0,8.1 0.4,16.3 0.7,24.4 l 1.4,15.5 v 16.3 l 0.7,4.2 c 0.7,2.8 2.5,4.2 5.3,4.6 1.8,0 2.9,0 4,-0.4 h 7.7 c 5.6,0 11.3,0.7 16.6,0.4 8.1,-1 15.9,0 24,1 1.4,0 2.8,0.4 4.2,0.4 7.4,-0.4 14.5,-0.7 22,-0.7 z m 149,0 c 7,0 14.1,0.4 21.2,-0.6 6,-0.4 11.7,-1 17.3,-2.1 4.2,-0.7 6.4,-3.6 6.4,-8.2 0,-4.2 0.3,-8.8 -0.7,-13 a 562,562 0 0 0 -3.6,-24 c -0.3,-4 -2.8,-5.3 -6.7,-5.7 -6,-1 -12.3,-1 -18.3,-2.1 -11.7,-1.8 -23,-4.2 -35.4,-4.6 -1,0 -2,0 -2.4,-0.3 -1.8,-0.4 -2.9,-1.5 -3.2,-3.6 -0.4,-0.7 -0.4,-1.7 -0.4,-3.5 0,-3.9 0.4,-7.4 0,-10.6 -1,-9.5 0,-18 0.4,-27.5 l 1,-22 c 0.4,-2.4 0.4,-4.9 0.4,-7.7 l 1,-25 c 0.4,-6.8 0,-12.8 1.1,-18.8 1,-14.1 2.9,-28.2 4.3,-42.4 0.3,-5.2 -1,-6.7 -6.4,-7 l -18.4,-1.4 c -2.4,0 -5.2,-0.4 -7.7,0 -5.3,1 -10,1.4 -15.2,2.4 -2.8,0.4 -5.3,0.8 -8.1,1.8 -4.6,0.7 -7.4,3.5 -8.5,8.5 0,1 -0.4,1 -0.4,2.1 a 251,251 0 0 0 -1.7,23 c -0.4,8 -0.4,15.1 -0.4,23.3 l -0.7,13.7 c -0.3,8.2 -0.3,15.2 -1.4,22.6 v 10 c -0.3,11.2 -0.7,22.2 -0.7,33.5 0,8 0.4,15.5 0.7,23.6 0,8.1 0.4,16.3 0.7,24.4 l 1.4,15.5 v 16.3 l 0.7,4.2 c 0.7,2.8 2.5,4.2 5.3,4.6 1.8,0 2.9,0 4,-0.4 h 7.7 c 5.6,0 11.3,0.7 16.6,0.4 8.1,-1 15.9,0 24,1 1.4,0 2.8,0.4 4.2,0.4 7.4,-0.4 14.5,-0.7 22,-0.7 z m 133.1,-191.6 c 0,-11 -0.3,-21.6 -0.7,-32.5 0,-4.6 -2.4,-7.4 -7,-8.1 -1.8,-0.4 -3.2,-0.7 -5.7,-0.7 l -20.5,-0.8 c -8,-0.3 -15.1,-0.7 -23.3,-1.7 -5.6,-0.4 -7.7,1 -8.8,6.7 -0.3,4.2 -0.7,8.5 -0.7,12.7 v 12 c -0.4,5.7 -1,11 -1,16.6 -0.4,9.9 -0.8,20.1 -0.8,30.4 0,1 -0.3,1 -0.3,2 0,6.8 -0.4,12.4 -0.7,19.2 v 15.1 c -0.4,8.2 -1.4,16 -1.4,24 0,8.2 0.7,15.6 1,23.7 0,3.5 1.8,5.3 5.7,5.3 h 18 c 5.3,0 10.6,0 15.9,-0.4 5.3,0 10.2,0 15.5,-0.3 a 5.3,5.3 0 0 0 5,-5 c 1,-5.6 1.4,-11.2 1.7,-16.9 l 2.8,-19.8 c 1.5,-8 2.5,-16.6 2.5,-25 l 1.4,-26.2 c 0.4,-6.7 1,-12.7 1,-19.4 0.4,-3.9 0,-7 0,-11 z m -72.3,182.9 0.7,12.7 c 0.3,3.9 2,5.6 6,6 2.4,0 4.2,0 5.3,-0.4 a 251,251 0 0 0 23,-1.7 c 1,-0.4 1.7,0 2.7,0 h 11.3 c 8.2,0 10.3,-3.2 10,-10 v -14 c 0.3,-6.8 1,-13.1 1,-19.8 0.3,-4.6 -2.1,-7 -6.7,-7.8 -4,-1 -7.8,-1.4 -11.7,-1.4 -8.5,-0.4 -17.3,-0.4 -25.8,-0.4 -3.1,0 -6,0.4 -8.8,1.1 -2.8,0.4 -4.6,1.8 -5.3,5 -0.3,1.7 -0.7,3.1 -0.7,4.2 -0.3,8.8 -0.7,17.6 -0.7,26.5 z"
       id="path12" />
  </g>
</svg>
